<svg width="254" height="254" viewBox="0 0 254 254" fill="none" xmlns="http://www.w3.org/2000/svg">
<path d="M206.33 179.4C207.029 175.61 207.384 171.764 207.39 167.91C207.4 153.799 202.684 140.091 193.994 128.974C185.304 117.856 173.141 109.969 159.445 106.572C145.749 103.174 131.309 104.462 118.431 110.229C105.552 115.996 94.976 125.91 88.39 138.39C85.9634 138.024 83.514 137.83 81.06 137.81C67.5525 137.81 54.5983 143.176 45.0471 152.727C35.4958 162.279 30.13 175.233 30.13 188.74C30.13 202.248 35.4958 215.202 45.0471 224.753C54.5983 234.304 67.5525 239.67 81.06 239.67H192.5C199.683 239.673 206.654 237.237 212.271 232.761C217.889 228.285 221.821 222.035 223.423 215.033C225.025 208.031 224.202 200.693 221.09 194.219C217.977 187.746 212.759 182.521 206.29 179.4H206.33Z" fill="#F5F5F5"/>
<path d="M26.3 40.9302C25.2742 35.4857 26.2376 29.8537 29.0148 25.0597C31.7921 20.2657 36.1986 16.6284 41.4321 14.81C46.6656 12.9916 52.378 13.113 57.5295 15.1522C62.681 17.1913 66.929 21.0125 69.5 25.9202C70.387 25.7846 71.2827 25.7144 72.18 25.7102C74.6649 25.6527 77.1361 26.0924 79.4486 27.0035C81.7611 27.9147 83.8681 29.2789 85.6458 31.0159C87.4236 32.7529 88.8362 34.8278 89.8006 37.1186C90.765 39.4093 91.2618 41.8697 91.2618 44.3552C91.2618 46.8407 90.765 49.3012 89.8006 51.5919C88.8362 53.8827 87.4236 55.9575 85.6458 57.6946C83.8681 59.4316 81.7611 60.7958 79.4486 61.7069C77.1361 62.6181 74.6649 63.0578 72.18 63.0002H31.35C28.7189 63.003 26.1648 62.1119 24.1064 60.4731C22.048 58.8342 20.6073 56.5448 20.0204 53.9799C19.4335 51.415 19.7353 48.7269 20.8762 46.356C22.0171 43.985 23.9295 42.072 26.3 40.9302Z" fill="#F5F5F5"/>
<path d="M235.96 77.9706C236.586 74.5373 235.963 70.9934 234.204 67.9792C232.445 64.9651 229.666 62.6797 226.368 61.536C223.071 60.3922 219.474 60.4656 216.226 61.743C212.978 63.0203 210.295 65.4172 208.66 68.5006C207.059 68.2703 205.428 68.3722 203.868 68.7998C202.309 69.2273 200.854 69.9715 199.594 70.9859C198.335 72.0003 197.297 73.2631 196.547 74.6958C195.797 76.1286 195.35 77.7004 195.233 79.3135C195.117 80.9265 195.334 82.5463 195.871 84.0718C196.408 85.5973 197.253 86.9959 198.354 88.1805C199.455 89.3651 200.789 90.3103 202.271 90.9572C203.753 91.6041 205.353 91.9388 206.97 91.9406H232.77C234.451 91.9649 236.09 91.4112 237.412 90.3721C238.734 89.333 239.659 87.8715 240.033 86.232C240.406 84.5926 240.206 82.8745 239.464 81.3653C238.723 79.856 237.486 78.6471 235.96 77.9406V77.9706Z" fill="#F5F5F5"/>
<path d="M193.81 193.75H60.1899C58.2705 193.752 56.3696 193.375 54.5959 192.641C52.8222 191.907 51.2104 190.831 49.8527 189.475C48.4949 188.118 47.4179 186.507 46.683 184.734C45.9482 182.96 45.5699 181.06 45.5699 179.14V107.67C45.5687 105.481 46.1253 103.328 47.1874 101.414C48.2495 99.4995 49.7819 97.8876 51.6399 96.7302L120.17 53.9602C122.218 52.6805 124.585 52.002 127 52.002C129.415 52.002 131.782 52.6805 133.83 53.9602L202.36 96.7302C204.218 97.8876 205.75 99.4995 206.812 101.414C207.875 103.328 208.431 105.481 208.43 107.67V179.14C208.43 181.06 208.052 182.96 207.317 184.734C206.582 186.507 205.505 188.118 204.147 189.475C202.79 190.831 201.178 191.907 199.404 192.641C197.63 193.375 195.729 193.752 193.81 193.75Z" fill="white" stroke="#231F20" stroke-width="3" stroke-miterlimit="10" stroke-linecap="round"/>
<path d="M69.5299 114.92V67.4102H184.93V114.92" fill="white"/>
<path d="M69.5299 114.92V67.4102H184.93V114.92" stroke="#231F20" stroke-width="3" stroke-miterlimit="10" stroke-linecap="round"/>
<path d="M47.21 101.38L113.8 143.13C117.869 145.278 122.4 146.4 127 146.4C131.6 146.4 136.131 145.278 140.2 143.13L206.78 101.36" stroke="#231F20" stroke-width="3" stroke-miterlimit="10" stroke-linecap="round"/>
<path d="M46.34 183.82L119.34 141.73C121.676 140.379 124.327 139.668 127.025 139.668C129.723 139.668 132.374 140.379 134.71 141.73L207.71 183.82" fill="white"/>
<path d="M46.34 183.82L119.34 141.73C121.676 140.379 124.327 139.668 127.025 139.668C129.723 139.668 132.374 140.379 134.71 141.73L207.71 183.82" stroke="#231F20" stroke-width="3" stroke-miterlimit="10"/>
<path d="M127 132.45C142.967 132.45 155.91 119.506 155.91 103.54C155.91 87.5733 142.967 74.6299 127 74.6299C111.033 74.6299 98.09 87.5733 98.09 103.54C98.09 119.506 111.033 132.45 127 132.45Z" fill="white" stroke="#F2F3F4" stroke-width="2"/>
<path d="M133.5 96.8404L131.84 95.1904L124.41 102.62L126.06 104.27L133.5 96.8404ZM138.5 95.1904L126.11 107.69L121.16 102.69L119.5 104.38L126.11 110.99L140.27 96.8304L138.5 95.1904ZM112.78 104.39L119.39 111L121.04 109.35L114.43 102.73L112.78 104.39Z" fill="#00ADEF"/>
</svg>
