<svg width="253" height="253" viewBox="0 0 253 253" fill="none" xmlns="http://www.w3.org/2000/svg">
<path d="M180.061 36H72.9388C52.5381 36 36 52.5381 36 72.9388V180.061C36 200.462 52.5381 217 72.9388 217H180.061C200.462 217 217 200.462 217 180.061V72.9388C217 52.5381 200.462 36 180.061 36Z" fill="url(#paint0_linear)"/>
<path d="M72.2113 121.344C72.7332 121.987 73.4883 122.399 74.3122 122.489C75.1361 122.579 75.9622 122.34 76.6108 121.824L79.5105 119.493V168.174C79.5134 169.68 80.1122 171.123 81.1761 172.188C82.24 173.254 83.6824 173.854 85.1879 173.859H165.932C167.439 173.855 168.883 173.255 169.948 172.19C171.013 171.125 171.613 169.681 171.617 168.174V119.593L174.428 121.853C174.986 122.294 175.675 122.535 176.386 122.537C176.857 122.537 177.322 122.43 177.745 122.223C178.168 122.016 178.539 121.715 178.828 121.344C179.345 120.694 179.585 119.867 179.495 119.041C179.405 118.216 178.993 117.459 178.348 116.937L128.927 77.2017L127.793 76.6365C127.085 76.3256 126.32 76.165 125.547 76.165C124.774 76.165 124.009 76.3256 123.301 76.6365L122.112 77.1869L72.6953 116.926C72.0514 117.448 71.6398 118.203 71.5498 119.026C71.4599 119.85 71.6989 120.677 72.215 121.325" fill="white"/>
<path d="M145.372 150.085C146.953 149.451 148.378 148.482 149.55 147.245C150.701 146.012 151.598 144.565 152.191 142.986C152.846 141.341 153.173 139.585 153.155 137.814C153.188 136.025 152.86 134.247 152.191 132.588C151.596 131.026 150.699 129.597 149.55 128.384C148.368 127.152 146.946 126.177 145.372 125.518C143.647 124.83 141.806 124.483 139.95 124.494H132.311V151.249H139.95C141.815 151.213 143.656 150.818 145.372 150.085ZM139.95 116.431C142.894 116.414 145.815 116.963 148.552 118.048C151.148 119.123 153.519 120.676 155.541 122.625C157.537 124.566 159.129 126.882 160.225 129.44C161.374 132.082 161.945 134.938 161.902 137.818C161.931 140.697 161.36 143.55 160.225 146.196C159.091 148.735 157.504 151.045 155.541 153.015C153.544 154.974 151.165 156.502 148.552 157.503C145.831 158.649 142.902 159.22 139.95 159.18H123.563V116.431H139.95Z" fill="#231F20"/>
<path d="M102.295 134.128C101.054 134.126 99.852 133.695 98.8937 132.907C97.9354 132.119 97.2799 131.023 97.0389 129.806C96.798 128.589 96.9863 127.326 97.572 126.232C98.1577 125.139 99.1046 124.282 100.251 123.808C101.398 123.334 102.673 123.272 103.86 123.633C105.047 123.993 106.073 124.755 106.761 125.787C107.45 126.818 107.76 128.057 107.638 129.292C107.516 130.527 106.969 131.681 106.092 132.558C105.593 133.056 105.001 133.451 104.349 133.721C103.698 133.99 103 134.128 102.295 134.128ZM102.295 115.695C99.7102 115.695 97.1837 116.46 95.0345 117.896C92.8854 119.331 91.2101 121.371 90.2208 123.759C89.2315 126.147 88.9725 128.774 89.4765 131.309C89.9805 133.843 91.2249 136.172 93.0523 137.999C94.8797 139.826 97.2081 141.071 99.7428 141.575C102.278 142.079 104.905 141.82 107.292 140.831C109.68 139.841 111.72 138.166 113.156 136.017C114.591 133.868 115.357 131.341 115.356 128.757C115.355 125.293 113.979 121.971 111.529 119.522C109.08 117.073 105.758 115.696 102.295 115.695Z" fill="#231F20"/>
<path d="M216.91 64.82C232.877 64.82 245.82 51.8766 245.82 35.91C245.82 19.9435 232.877 7 216.91 7C200.943 7 188 19.9435 188 35.91C188 51.8766 200.943 64.82 216.91 64.82Z" fill="white" stroke="#F2F3F4" stroke-width="2"/>
<path d="M223.42 29.1998L221.76 27.5498L214.33 34.9898L215.98 36.6398L223.42 29.1998ZM228.42 27.5498L215.98 40.0598L210.98 35.0598L209.32 36.7098L215.93 43.3198L230.09 29.1598L228.42 27.5498ZM202.7 36.7598L209.31 43.3598L210.96 41.7098L204.35 35.0998L202.7 36.7598Z" fill="#00ADEF"/>
<defs>
<linearGradient id="paint0_linear" x1="126.5" y1="36" x2="126.5" y2="217" gradientUnits="userSpaceOnUse">
<stop stop-color="#7FB0F8"/>
<stop offset="1" stop-color="#D5D3FF"/>
</linearGradient>
</defs>
</svg>
