<svg width="24" height="20" viewBox="0 0 24 20" fill="none" xmlns="http://www.w3.org/2000/svg">
<path d="M19.3351 6.65498C18.9981 4.95454 18.0824 3.42333 16.7439 2.3218C15.4054 1.22027 13.7266 0.616425 11.9931 0.612976C11.5032 0.613423 11.0146 0.661313 10.5341 0.755976C9.43027 0.974344 8.38975 1.43827 7.48961 2.11338C6.58946 2.78849 5.85275 3.65748 5.33406 4.65598C3.81627 4.83181 2.42275 5.58008 1.43774 6.74813C0.452738 7.91619 -0.0495331 9.41603 0.0333846 10.9417C0.116302 12.4674 0.778162 13.904 1.88395 14.9584C2.98974 16.0128 4.45615 16.6057 5.98406 16.616H6.12506V14.616H6.00006C4.98052 14.6104 4.00159 14.2158 3.26328 13.5126C2.52498 12.8095 2.08303 11.851 2.02775 10.8329C1.97247 9.81487 2.30802 8.81413 2.96585 8.03519C3.62368 7.25625 4.55412 6.7579 5.56706 6.64198L6.62306 6.51998L7.11206 5.57698C7.49043 4.84378 8.02982 4.20572 8.68981 3.7106C9.3498 3.21547 10.1133 2.87613 10.9231 2.71798C11.6308 2.57744 12.3592 2.57788 13.0668 2.71928C13.7743 2.86068 14.447 3.14025 15.0463 3.542C15.6456 3.94375 16.1598 4.45977 16.5594 5.06052C16.959 5.66127 17.2362 6.33495 17.3751 7.04298L17.6751 8.54298L19.2021 8.64998C19.9724 8.70645 20.6909 9.05922 21.2066 9.6342C21.7223 10.2092 21.9952 10.9617 21.9679 11.7336C21.9406 12.5055 21.6152 13.2368 21.0601 13.7739C20.5051 14.311 19.7634 14.6121 18.9911 14.614H17.8741V16.614H18.9891C20.2815 16.614 21.5235 16.1123 22.4531 15.2144C23.3828 14.3165 23.9275 13.0927 23.9723 11.8011C24.0172 10.5094 23.5588 9.25079 22.6937 8.29058C21.8286 7.33036 20.6244 6.74359 19.3351 6.65398V6.65498Z" fill="#00ADEF"/>
<path d="M15.7741 16.613V14.613H13.0001V11.839H11.0001V14.613H8.22607V16.613H11.0001V19.387H13.0001V16.613H15.7741Z" fill="#00ADEF"/>
</svg>
