<svg width="23" height="23" viewBox="0 0 23 23" fill="none" xmlns="http://www.w3.org/2000/svg">
<path fill-rule="evenodd" clip-rule="evenodd" d="M12.7296 5.08583L17.9142 10.2705L5.68159 22.5031L0.603219 22.4656L0.490913 17.3245L12.7296 5.08583ZM2.50909 18.1347L2.56032 20.48L4.8593 20.497L15.0858 10.2705L12.7296 7.91426L2.50909 18.1347Z" fill="#888888"/>
<path fill-rule="evenodd" clip-rule="evenodd" d="M18.6697 9.47086L13.5242 4.32529L16.4904 1.35905C16.8294 1.02005 17.2892 0.82959 17.7686 0.82959C18.2481 0.82959 18.7079 1.02005 19.0469 1.35905L21.636 3.94816C21.975 4.28717 22.1654 4.74696 22.1654 5.2264C22.1654 5.70583 21.975 6.16562 21.636 6.50463L18.6697 9.47086ZM18.6697 6.64244L20.0858 5.2264L17.7686 2.90925L16.3526 4.32529L18.6697 6.64244Z" fill="#888888"/>
</svg>
