<svg width="24" height="23" viewBox="0 0 24 23" fill="none" xmlns="http://www.w3.org/2000/svg">
<path fill-rule="evenodd" clip-rule="evenodd" d="M11.5 8.78C9.99779 8.78 8.78 9.99779 8.78 11.5C8.78 13.0022 9.99779 14.22 11.5 14.22C13.0022 14.22 14.22 13.0022 14.22 11.5C14.22 9.99779 13.0022 8.78 11.5 8.78ZM6.78 11.5C6.78 8.89322 8.89322 6.78 11.5 6.78C14.1068 6.78 16.22 8.89322 16.22 11.5C16.22 14.1068 14.1068 16.22 11.5 16.22C8.89322 16.22 6.78 14.1068 6.78 11.5Z" fill="#00ADEF"/>
<path fill-rule="evenodd" clip-rule="evenodd" d="M9.10794 0H13.9121L14.6998 2.27554C15.0749 2.40359 15.4419 2.55459 15.7986 2.72768L17.9875 1.63324L21.3868 5.03255L20.2923 7.22143C20.4654 7.57809 20.6164 7.94506 20.7445 8.32025L23.02 9.10794V13.8943L20.7238 14.6815C20.5959 15.0561 20.4451 15.4225 20.2723 15.7786L21.3668 17.9675L17.9675 21.3668L15.7786 20.2723C15.4219 20.4454 15.0549 20.5964 14.6798 20.7245L13.8921 23H9.10794L8.32025 20.7245C7.94506 20.5964 7.57809 20.4454 7.22143 20.2723L5.03255 21.3668L1.63324 17.9675L2.72768 15.7786C2.55459 15.4219 2.40359 15.0549 2.27554 14.6798L0 13.8921V9.10794L2.27554 8.32025C2.40359 7.94505 2.55459 7.57809 2.72768 7.22143L1.63324 5.03255L5.03255 1.63324L7.22143 2.72768C7.57809 2.55459 7.94505 2.40359 8.32025 2.27554L9.10794 0ZM10.5321 2L9.87389 3.90139L9.37031 4.04277C8.79419 4.20453 8.23897 4.43314 7.71599 4.72396L7.25479 4.98043L5.42745 4.06676L4.06676 5.42745L4.98043 7.25479L4.72396 7.71599C4.43314 8.23897 4.20453 8.79419 4.04277 9.37031L3.90139 9.87389L2 10.5321V12.4679L3.90139 13.1261L4.04277 13.6297C4.20453 14.2058 4.43314 14.761 4.72396 15.284L4.98043 15.7452L4.06676 17.5725L5.42745 18.9332L7.25479 18.0196L7.71599 18.276C8.23897 18.5669 8.79418 18.7955 9.37031 18.9572L9.87389 19.0986L10.5321 21H12.4679L13.1261 19.0986L13.6297 18.9572C14.2058 18.7955 14.761 18.5669 15.284 18.276L15.7452 18.0196L17.5725 18.9332L18.9332 17.5725L18.0196 15.7452L18.276 15.284C18.5669 14.761 18.7955 14.2058 18.9572 13.6297L19.0991 13.1243L21.02 12.4657V10.5321L19.1186 9.87389L18.9772 9.37031C18.8155 8.79418 18.5869 8.23897 18.296 7.71599L18.0396 7.25479L18.9532 5.42745L17.5925 4.06676L15.7652 4.98043L15.304 4.72396C14.781 4.43314 14.2258 4.20453 13.6497 4.04277L13.1461 3.90139L12.4879 2H10.5321Z" fill="#00ADEF"/>
</svg>
