<svg width="23" height="22" viewBox="0 0 23 22" fill="none" xmlns="http://www.w3.org/2000/svg">
<path fill-rule="evenodd" clip-rule="evenodd" d="M13.6374 2.2575C11.5537 1.74808 9.35663 1.99962 7.44201 2.96679C5.52739 3.93396 4.02117 5.55315 3.19476 7.5326C2.36834 9.51205 2.27609 11.7216 2.93462 13.763C3.59316 15.8045 4.95917 17.5436 6.7865 18.667C8.61383 19.7904 10.7823 20.2242 12.9012 19.8902C15.0201 19.5563 16.95 18.4765 18.3432 16.8455C19.7364 15.2145 20.5013 13.1396 20.5 10.9945L22.5 10.9933C22.5016 13.615 21.5667 16.1511 19.8639 18.1445C18.1611 20.138 15.8023 21.4577 13.2126 21.8658C10.6228 22.274 7.97246 21.7438 5.73905 20.3708C3.50565 18.9977 1.83608 16.8721 1.03121 14.377C0.226335 11.8819 0.339087 9.18139 1.34915 6.76206C2.35921 4.34274 4.20015 2.36372 6.54024 1.18163C8.88032 -0.000470161 11.5657 -0.307905 14.1124 0.31472C16.6591 0.937345 18.8997 2.44908 20.4304 4.57753L18.8067 5.74525C17.5543 4.0038 15.7211 2.76692 13.6374 2.2575Z" fill="#888888"/>
<path fill-rule="evenodd" clip-rule="evenodd" d="M18.5 4V9.41544e-07H20.5V6H14.5V4H18.5Z" fill="#888888"/>
</svg>
