<svg width="24" height="24" viewBox="0 0 24 24" fill="none" xmlns="http://www.w3.org/2000/svg">
<path d="M21.6923 22.6615H2.30766C1.92835 22.661 1.56491 22.5101 1.2967 22.2419C1.02848 21.9737 0.877564 21.6101 0.877075 21.2308V4.61539C0.877564 4.23608 1.02848 3.87241 1.2967 3.6042C1.56491 3.33598 1.92835 3.18512 2.30766 3.18463H5.07689V4.19999H2.30766C2.19757 4.20024 2.09209 4.24407 2.01424 4.32191C1.9364 4.39976 1.89257 4.5053 1.89232 4.61539V21.2308C1.89257 21.3409 1.9364 21.4464 2.01424 21.5243C2.09209 21.6021 2.19757 21.6459 2.30766 21.6462H21.6923C21.8024 21.6459 21.9081 21.6021 21.9859 21.5243C22.0638 21.4464 22.1076 21.3409 22.1078 21.2308V4.61539C22.1076 4.5053 22.0638 4.39976 21.9859 4.32191C21.9081 4.24407 21.8024 4.20024 21.6923 4.19999H18.923V3.18463H21.6923C22.0716 3.18512 22.4353 3.33598 22.7035 3.6042C22.9717 3.87241 23.1226 4.23608 23.1231 4.61539V21.2308C23.1228 21.6102 22.9722 21.9739 22.7039 22.2422C22.4357 22.5105 22.0717 22.6613 21.6923 22.6615Z" fill="#00ADEF"/>
<path d="M7.43091 1.84613H6.41553V5.53844H7.43091V1.84613Z" fill="#00ADEF"/>
<path d="M17.5847 1.84613H16.5693V5.53844H17.5847V1.84613Z" fill="#00ADEF"/>
<path d="M12.4615 8.72308H11.5385V9.73847H12.4615V8.72308Z" fill="#00ADEF"/>
<path d="M22.6127 8.72308H1.47607V9.73847H22.6127V8.72308Z" fill="#00ADEF"/>
<path d="M7.84617 13.3384H6.9231V14.3538H7.84617V13.3384Z" fill="#00ADEF"/>
<path d="M12.4615 13.3384H11.5385V14.3538H12.4615V13.3384Z" fill="#00ADEF"/>
<path d="M17.0769 13.3384H16.1538V14.3538H17.0769V13.3384Z" fill="#00ADEF"/>
<path d="M7.84617 17.9539H6.9231V18.9692H7.84617V17.9539Z" fill="#00ADEF"/>
<path d="M12.4615 17.9539H11.5385V18.9692H12.4615V17.9539Z" fill="#00ADEF"/>
<path d="M15.2307 3.18463H8.76917V4.20002H15.2307V3.18463Z" fill="#00ADEF"/>
</svg>
