<svg width="24" height="24" viewBox="0 0 24 24" fill="none" xmlns="http://www.w3.org/2000/svg">
<path fill-rule="evenodd" clip-rule="evenodd" d="M13.7802 6.0332L17.9673 10.2203L6.71549 21.4721L2.62158 21.436L2.52539 17.288L13.7802 6.0332ZM3.53504 17.6926L3.59886 20.4446L6.30494 20.4685L16.5531 10.2203L13.7802 7.44742L3.53504 17.6926Z" fill="#888888"/>
<path fill-rule="evenodd" clip-rule="evenodd" d="M18.6963 9.48828L14.5102 5.30221L16.872 2.94047C17.002 2.81047 17.1563 2.70735 17.3261 2.63699C17.496 2.56663 17.6781 2.53042 17.8619 2.53042C18.0458 2.53042 18.2278 2.56663 18.3977 2.63699C18.5675 2.70735 18.7219 2.81047 18.8519 2.94047L21.058 5.14665C21.188 5.27665 21.2912 5.43098 21.3615 5.60084C21.4319 5.77069 21.4681 5.95274 21.4681 6.13659C21.4681 6.32044 21.4319 6.50249 21.3615 6.67235C21.2912 6.84221 21.188 6.99654 21.058 7.12654L18.6963 9.48828ZM18.6963 8.07407L20.3509 6.41944C20.3881 6.3823 20.4175 6.3382 20.4376 6.28967C20.4577 6.24114 20.4681 6.18912 20.4681 6.13659C20.4681 6.08407 20.4577 6.03205 20.4376 5.98352C20.4175 5.93499 20.3881 5.8909 20.3509 5.85375L18.1447 3.64758C18.1076 3.61044 18.0635 3.58097 18.015 3.56087C17.9664 3.54077 17.9144 3.53042 17.8619 3.53042C17.8094 3.53042 17.7574 3.54077 17.7088 3.56087C17.6603 3.58097 17.6162 3.61044 17.5791 3.64758L15.9244 5.30221L18.6963 8.07407Z" fill="#888888"/>
</svg>
