<svg width="18" height="18" viewBox="0 0 18 18" fill="none" xmlns="http://www.w3.org/2000/svg">
<path fill-rule="evenodd" clip-rule="evenodd" d="M15.73 0.704319L0.704326 15.7304C0.0563461 16.3784 0.349815 16.7846 0.782585 17.2174C1.21535 17.6501 1.62152 17.9436 2.2695 17.2956L17.2951 2.26954C17.9431 1.62154 17.6496 1.21536 17.2169 0.78258C16.7841 0.349797 16.3779 0.0563181 15.73 0.704319Z" fill="black"/>
<path fill-rule="evenodd" clip-rule="evenodd" d="M2.27004 0.704319L17.2957 15.7304C17.9437 16.3784 17.6502 16.7846 17.2174 17.2174C16.7846 17.6501 16.3785 17.9436 15.7305 17.2956L0.704873 2.26954C0.0568919 1.62154 0.350362 1.21536 0.783132 0.78258C1.2159 0.349797 1.62206 0.0563181 2.27004 0.704319Z" fill="black"/>
</svg>
