<svg width="14" height="15" viewBox="0 0 14 15" fill="none" xmlns="http://www.w3.org/2000/svg">
<path d="M13.6824 6.23249H7.14994V8.91749H10.7874C10.4598 9.78763 9.84278 10.5185 9.03994 10.9875C8.42165 11.3501 7.71807 11.5418 7.00129 11.543C6.28451 11.5441 5.58031 11.3547 4.96087 10.994C4.34142 10.6334 3.82901 10.1145 3.47614 9.4906C3.12326 8.8667 2.94262 8.16019 2.95273 7.44348C2.96284 6.72677 3.16332 6.02563 3.53365 5.41193C3.90397 4.79822 4.43081 4.29401 5.06017 3.95098C5.68954 3.60794 6.39879 3.43841 7.11526 3.45976C7.83172 3.48112 8.52962 3.69258 9.13744 4.07249L11.3424 2.24999C10.1278 1.22959 8.59477 0.66578 7.00845 0.656072C5.42212 0.646365 3.88229 1.19137 2.65527 2.19683C1.42826 3.20229 0.591225 4.60497 0.288952 6.16226C-0.0133213 7.71954 0.238174 9.33351 0.999938 10.725C1.47313 11.6042 2.13406 12.3684 2.9358 12.9635C3.73754 13.5585 4.66045 13.9698 5.63899 14.1681C6.61754 14.3663 7.62774 14.3468 8.59788 14.1108C9.56803 13.8748 10.4743 13.4281 11.2524 12.8025C12.0469 12.1655 12.6883 11.3585 13.1297 10.4409C13.571 9.52319 13.8009 8.51825 13.8024 7.49999C13.8011 7.07472 13.761 6.65046 13.6824 6.23249Z" fill="#888888"/>
</svg>
