<svg width="151" height="30" viewBox="0 0 151 30" fill="none" xmlns="http://www.w3.org/2000/svg">
<g clip-path="url(#clip0)">
<path d="M61.5792 3.55004V10.5167H60.46V2.52087H62.34L64.3833 9.18754L66.4267 2.52087H68.3067V10.5167H67.185V3.55004L64.9775 10.5167H63.7867L61.5792 3.55004Z" fill="#231F20"/>
<path d="M69.9358 6.5183C69.8685 5.98887 69.9148 5.45119 70.0714 4.94102C70.228 4.43084 70.4915 3.95986 70.8443 3.55941C71.197 3.15896 71.631 2.83821 72.1174 2.6185C72.6038 2.39879 73.1313 2.28516 73.665 2.28516C74.1987 2.28516 74.7262 2.39879 75.2126 2.6185C75.699 2.83821 76.133 3.15896 76.4857 3.55941C76.8385 3.95986 77.102 4.43084 77.2586 4.94102C77.4153 5.45119 77.4615 5.98887 77.3942 6.5183C77.4615 7.04772 77.4153 7.5854 77.2586 8.09557C77.102 8.60575 76.8385 9.07673 76.4857 9.47718C76.133 9.87763 75.699 10.1984 75.2126 10.4181C74.7262 10.6378 74.1987 10.7514 73.665 10.7514C73.1313 10.7514 72.6038 10.6378 72.1174 10.4181C71.631 10.1984 71.197 9.87763 70.8443 9.47718C70.4915 9.07673 70.228 8.60575 70.0714 8.09557C69.9148 7.5854 69.8685 7.04772 69.9358 6.5183ZM76.2758 6.5183C76.2758 4.45996 75.1275 3.3258 73.68 3.3258C72.2325 3.3258 71.0842 4.47413 71.0842 6.5183C71.0842 8.56246 72.2175 9.7108 73.68 9.7108C75.1425 9.7108 76.2692 8.57746 76.2692 6.5183" fill="#231F20"/>
<path d="M82.045 5.68337C83.82 5.68337 84.8942 6.41421 84.8942 8.04004C84.8942 9.66587 83.7008 10.5167 82.045 10.5167H79.0617V2.52087H84.4317V3.49087H80.165V5.68337H82.045ZM83.7458 8.05504C83.7458 6.98087 83.0892 6.56337 81.9558 6.56337H80.1658V9.54671H82.045C83.1492 9.54671 83.79 9.02421 83.79 8.05504" fill="#231F20"/>
<path d="M87.5208 10.5167H86.4017V2.52087H87.5208V8.86254L91.8167 2.52087H92.9358V10.5167H91.8167V4.16171L87.5208 10.5167Z" fill="#231F20"/>
<path d="M99.9467 3.49087H97.1133V4.89254C96.9792 8.35337 96.4275 10.5167 94.7858 10.5167H94.4567V9.54671H94.6233C95.6825 9.54671 95.9508 7.27921 96.04 4.54671V2.52087H100.992V10.5167H99.9467V3.49087Z" fill="#231F20"/>
<path d="M104.228 2.52087V5.50421H105.407C107.407 5.47421 108.898 5.96671 108.898 7.99504C108.898 10.0234 107.406 10.5159 105.481 10.5159H103.109V2.52087H104.228ZM107.645 7.99587C107.645 6.66837 106.675 6.50421 105.453 6.50421H104.228V9.54754H105.451C106.674 9.54754 107.643 9.29754 107.643 8.05587" fill="#231F20"/>
<path d="M116.594 10.5167H115.476V6.89171H111.269V10.5167H110.15V2.52087H111.269V5.92171H115.476V2.52087H116.595L116.594 10.5167Z" fill="#231F20"/>
<path d="M118.22 6.5183C118.153 5.98887 118.199 5.45119 118.356 4.94102C118.512 4.43084 118.776 3.95986 119.128 3.55941C119.481 3.15896 119.915 2.83821 120.402 2.6185C120.888 2.39879 121.415 2.28516 121.949 2.28516C122.483 2.28516 123.01 2.39879 123.497 2.6185C123.983 2.83821 124.417 3.15896 124.77 3.55941C125.123 3.95986 125.386 4.43084 125.543 4.94102C125.699 5.45119 125.746 5.98887 125.678 6.5183C125.746 7.04772 125.699 7.5854 125.543 8.09557C125.386 8.60575 125.123 9.07673 124.77 9.47718C124.417 9.87763 123.983 10.1984 123.497 10.4181C123.01 10.6378 122.483 10.7514 121.949 10.7514C121.415 10.7514 120.888 10.6378 120.402 10.4181C119.915 10.1984 119.481 9.87763 119.128 9.47718C118.776 9.07673 118.512 8.60575 118.356 8.09557C118.199 7.5854 118.153 7.04772 118.22 6.5183ZM124.56 6.5183C124.56 4.45996 123.427 3.3258 121.964 3.3258C120.502 3.3258 119.338 4.47413 119.338 6.5183C119.338 8.56246 120.487 9.7108 121.934 9.7108C123.382 9.7108 124.53 8.57746 124.53 6.5183" fill="#231F20"/>
<path d="M132.765 2.52087V3.49087H128.452V5.92171H132.509V6.89171H128.452V9.54671H132.763V10.5167H127.335V2.52087H132.765Z" fill="#231F20"/>
<path d="M34.9958 0.492484C36.9849 0.459035 38.9609 0.820215 40.8095 1.55514C42.6581 2.29006 44.3427 3.38415 45.7658 4.77415C47.1397 6.11549 48.239 7.7116 49.0025 9.47332C49.7902 11.2952 50.1876 13.2619 50.1692 15.2466C50.1894 17.2316 49.7919 19.1986 49.0025 21.02C48.2396 22.7884 47.1355 24.3891 45.7533 25.7304C44.3712 27.0717 42.7381 28.1272 40.9475 28.8367C39.0598 29.631 37.0287 30.0282 34.9808 30.0033H23.7033V0.492484H34.9958ZM38.785 23.7166C39.8678 23.2763 40.8443 22.6101 41.6492 21.7625C42.4447 20.8938 43.0669 19.8812 43.4825 18.7791C43.9308 17.6383 44.1538 16.4215 44.1392 15.1958C44.1535 13.9615 43.9306 12.736 43.4825 11.5858C43.0618 10.5084 42.4396 9.52105 41.6492 8.67665C40.8342 7.84087 39.8604 7.17646 38.785 6.72248C37.5829 6.2272 36.296 5.97049 34.9958 5.96665H29.73V24.4666H34.9958C36.2984 24.4954 37.5916 24.2394 38.785 23.7166Z" fill="#231F20"/>
<path d="M8.95 0C7.17985 0 5.44946 0.524908 3.97764 1.50835C2.50582 2.49179 1.35868 3.88959 0.681275 5.52498C0.00387025 7.16038 -0.17337 8.95993 0.171968 10.6961C0.517306 12.4322 1.36971 14.0269 2.62139 15.2786C3.87307 16.5303 5.46781 17.3827 7.20394 17.728C8.94007 18.0734 10.7396 17.8961 12.375 17.2187C14.0104 16.5413 15.4082 15.3942 16.3916 13.9224C17.3751 12.4505 17.9 10.7201 17.9 8.95C17.9 6.57631 16.9571 4.29985 15.2786 2.62139C13.6002 0.942944 11.3237 0 8.95 0V0ZM8.95 12.71C8.09687 12.6962 7.27474 12.3879 6.6229 11.8374C5.97105 11.2868 5.52956 10.5279 5.37322 9.68909C5.21689 8.8503 5.35533 7.98325 5.76508 7.23485C6.17483 6.48644 6.83071 5.90269 7.62158 5.5825C8.41246 5.26231 9.28971 5.22536 10.1047 5.47791C10.9197 5.73047 11.6223 6.257 12.0936 6.9683C12.5648 7.6796 12.7757 8.53193 12.6904 9.3809C12.6052 10.2299 12.2291 11.0233 11.6258 11.6267C11.2752 11.9774 10.8576 12.254 10.398 12.4401C9.93827 12.6262 9.44586 12.718 8.95 12.71Z" fill="#231F20"/>
<path d="M135.509 25.9266H60.46V29.9841H135.509V25.9266Z" fill="url(#paint0_linear)"/>
<path d="M61.5783 22.0025H62.3283C62.5228 22.0178 62.7174 21.9749 62.8874 21.8793C63.0574 21.7838 63.1952 21.6399 63.2833 21.4658L63.4325 21.1825L60.445 14.8275H61.6533L63.9808 20.0183L66.1283 14.8275H67.3667L64.3833 21.5108C64.2348 21.9378 63.9597 22.3093 63.5946 22.5758C63.2295 22.8423 62.7919 22.9912 62.34 23.0025H61.5192L61.5783 22.0025Z" fill="#231F20"/>
<path d="M73.3342 15.7942H69.3342V22.805H68.2175V14.8275H74.4533V22.8083H73.3342V15.7942Z" fill="#231F20"/>
<path d="M82.3883 17.2442C82.3883 19.2283 81.0308 19.6608 79.0767 19.6608H77.7042V22.8233H76.5708V14.8275H79.0617C81.0158 14.8275 82.3733 15.26 82.3733 17.2442H82.3883ZM77.6892 18.7358H79.1808C80.3475 18.7358 81.2692 18.6167 81.2692 17.2442C81.2692 15.8717 80.3442 15.7525 79.1808 15.7525H77.6892V18.7358Z" fill="#231F20"/>
<path d="M86.1033 14.8275L89.0867 22.8233H87.8783L87.2517 21.0933H83.6117L82.985 22.8233H81.8367L84.82 14.8275H86.1033ZM86.9242 20.1233L85.4317 15.9608L83.94 20.1225L86.9242 20.1233Z" fill="#231F20"/>
<path d="M93.1142 14.8275C94.6058 14.8275 95.9183 15.215 95.9183 16.7967C95.9374 17.1412 95.8662 17.4848 95.7119 17.7935C95.5576 18.1021 95.3254 18.3652 95.0383 18.5567C95.4155 18.7021 95.7363 18.9645 95.9537 19.3053C96.1711 19.6461 96.2738 20.0475 96.2467 20.4508C96.2467 22.1517 94.9783 22.8225 93.3825 22.8225H90.235V14.8275H93.1142ZM93.2808 18.2442C94.2058 18.2442 94.7725 17.8858 94.7725 16.9467C94.7725 16.0075 94.1608 15.7683 93.2808 15.7683H91.3542V18.245L93.2808 18.2442ZM93.4 21.8692C94.5333 21.8692 95.1008 21.3767 95.1008 20.4667C95.1008 19.5567 94.5342 19.1392 93.3258 19.1392H91.3542V21.8692H93.4Z" fill="#231F20"/>
<path d="M102.573 15.7942H99.7525V17.1817C99.6333 20.6425 99.0808 22.8208 97.44 22.8208H97.0975V21.8533H97.2642C98.3233 21.8533 98.6067 19.5708 98.7558 16.8408V14.8275H103.768V22.8233H102.635L102.573 15.7942Z" fill="#231F20"/>
<path d="M111.239 14.8275V15.7942H106.943V18.2108H110.986V19.195H106.943V21.835H111.239V22.805H105.822V14.8275H111.239Z" fill="#231F20"/>
<path d="M119.294 22.8083H118.176V19.1833H113.983V22.8083H112.85V14.8275H113.983V18.2108H118.175V14.8275H119.294V22.8083Z" fill="#231F20"/>
<path d="M122.546 22.8083H121.412V14.8275H122.546V21.1675L126.843 14.8275H127.962V22.8083H126.843V16.4683L122.546 22.8083Z" fill="#231F20"/>
<path d="M135.509 14.8275V15.7942H131.198V18.2108H135.256V19.195H131.198V21.835H135.509V22.805H130.079V14.8275H135.509Z" fill="#231F20"/>
</g>
<defs>
<linearGradient id="paint0_linear" x1="135.509" y1="27.9554" x2="87.3276" y2="27.9554" gradientUnits="userSpaceOnUse">
<stop stop-color="#7BBAFF"/>
<stop offset="1" stop-color="#CEEEDE"/>
</linearGradient>
<clipPath id="clip0">
<rect width="135.509" height="30" fill="white"/>
</clipPath>
</defs>
</svg>
