<svg width="24" height="24" viewBox="0 0 24 24" fill="none" xmlns="http://www.w3.org/2000/svg">
<path d="M12 23.5C9.72552 23.5 7.50211 22.8255 5.61095 21.5619C3.71978 20.2983 2.2458 18.5022 1.37539 16.4009C0.504983 14.2995 0.277244 11.9872 0.720974 9.75647C1.1647 7.52568 2.25997 5.47658 3.86828 3.86828C5.47658 2.25997 7.52568 1.1647 9.75647 0.720974C11.9872 0.277244 14.2995 0.504983 16.4009 1.37539C18.5022 2.2458 20.2983 3.71978 21.5619 5.61095C22.8255 7.50211 23.5 9.72552 23.5 12C23.4966 15.0489 22.2839 17.972 20.1279 20.1279C17.972 22.2839 15.0489 23.4966 12 23.5ZM12 1.50001C9.9233 1.50001 7.89323 2.11582 6.16652 3.26957C4.4398 4.42333 3.09399 6.0632 2.29927 7.98183C1.50455 9.90045 1.29661 12.0117 1.70176 14.0485C2.1069 16.0853 3.10693 17.9562 4.57538 19.4246C6.04384 20.8931 7.91476 21.8931 9.95156 22.2983C11.9884 22.7034 14.0996 22.4955 16.0182 21.7007C17.9368 20.906 19.5767 19.5602 20.7304 17.8335C21.8842 16.1068 22.5 14.0767 22.5 12C22.4968 9.21621 21.3896 6.54734 19.4211 4.57889C17.4527 2.61045 14.7838 1.50318 12 1.50001Z" fill="#888888"/>
<path d="M11.185 14.576C11.1787 14.0804 11.2879 13.5901 11.504 13.144C11.6983 12.7379 11.9577 12.3663 12.272 12.044C12.572 11.744 12.872 11.458 13.172 11.181C13.4668 10.9087 13.7253 10.5994 13.941 10.261C14.149 9.93918 14.2597 9.56419 14.26 9.18101C14.2775 8.91372 14.229 8.64624 14.1188 8.40211C14.0085 8.15798 13.84 7.94469 13.628 7.78101C13.1516 7.45006 12.5794 7.28524 12 7.31201C11.468 7.24259 10.9288 7.36781 10.4819 7.66461C10.035 7.9614 9.71039 8.40975 9.56799 8.92701L8.62399 8.40001C8.84161 7.72008 9.2995 7.14275 9.91199 6.77601C10.5438 6.40307 11.2664 6.21204 12 6.22401C12.8632 6.19958 13.7084 6.47366 14.393 7.00001C14.7184 7.25991 14.9773 7.59354 15.1482 7.97331C15.3191 8.35308 15.3972 8.76808 15.376 9.18401C15.3791 9.63041 15.2694 10.0704 15.057 10.463C14.8541 10.8441 14.5949 11.1924 14.288 11.496C13.9893 11.79 13.6893 12.0807 13.388 12.368C13.0843 12.6621 12.8253 12.999 12.619 13.368C12.409 13.7359 12.299 14.1524 12.3 14.576H11.185ZM12.368 17.52C12.2234 17.6667 12.0324 17.7585 11.8275 17.78C11.6227 17.8014 11.4168 17.7511 11.2449 17.6375C11.0731 17.524 10.946 17.3543 10.8854 17.1575C10.8248 16.9607 10.8343 16.7489 10.9125 16.5584C10.9907 16.3678 11.1326 16.2103 11.314 16.1128C11.4954 16.0153 11.705 15.9838 11.9071 16.0236C12.1091 16.0635 12.2911 16.1722 12.4218 16.3314C12.5526 16.4905 12.624 16.6901 12.624 16.896C12.626 17.012 12.6043 17.1271 12.5603 17.2344C12.5163 17.3417 12.4508 17.4389 12.368 17.52Z" fill="#888888"/>
</svg>
