<svg width="16" height="10" viewBox="0 0 16 10" fill="none" xmlns="http://www.w3.org/2000/svg">
<path d="M15.665 9.06247L15.6125 8.96497C15.1879 8.29739 14.6673 7.69594 14.0675 7.17997C13.8385 6.96903 13.6207 6.74623 13.415 6.51247C13.3368 6.42531 13.2847 6.31784 13.2648 6.20242C13.2449 6.087 13.258 5.9683 13.3025 5.85997C13.4938 5.4656 13.7277 5.09338 14 4.74997L14.525 4.06747C15.455 2.82997 15.8525 2.04247 15.7325 1.69747L15.68 1.61497C15.6121 1.54727 15.5262 1.50043 15.4325 1.47997C15.2618 1.44481 15.0857 1.44481 14.915 1.47997H12.5975C12.5436 1.46455 12.4864 1.46455 12.4325 1.47997H12.3275H12.29H12.2525C12.2195 1.50131 12.1914 1.52943 12.17 1.56247C12.1339 1.60439 12.1059 1.65273 12.0875 1.70497C11.8439 2.32988 11.5557 2.93644 11.225 3.51997C11.0225 3.84997 10.8425 4.14247 10.6775 4.38247C10.5521 4.57336 10.4117 4.75394 10.2575 4.92247C10.1633 5.02374 10.0604 5.11659 9.95003 5.19997C9.86003 5.27497 9.78503 5.30497 9.74003 5.28997H9.60503C9.52815 5.24051 9.46393 5.17373 9.41753 5.09497C9.36984 4.99585 9.3394 4.88932 9.32753 4.77997C9.32753 4.65247 9.32753 4.53997 9.32753 4.44997C9.32753 4.35997 9.32753 4.23247 9.32753 4.05997C9.32753 3.88747 9.32753 3.78247 9.32753 3.72247C9.32753 3.51997 9.32753 3.29497 9.32753 3.06247C9.32753 2.82997 9.32753 2.62747 9.32753 2.49247C9.32753 2.35747 9.32753 2.19997 9.32753 2.04997C9.34201 1.9279 9.34201 1.80454 9.32753 1.68247C9.31149 1.59177 9.28376 1.50353 9.24503 1.41997C9.20931 1.34084 9.15215 1.27329 9.08003 1.22497C8.99641 1.17538 8.90518 1.1399 8.81003 1.11997C8.45216 1.04724 8.08769 1.01205 7.72253 1.01497C7.0735 0.96105 6.4201 1.02715 5.79503 1.20997C5.67824 1.26976 5.57389 1.3512 5.48753 1.44997C5.39003 1.56997 5.37503 1.62997 5.45003 1.64497C5.58107 1.65393 5.70899 1.68908 5.82622 1.74834C5.94345 1.8076 6.0476 1.88976 6.13253 1.98997L6.18503 2.08747C6.23768 2.20481 6.27547 2.32827 6.29753 2.45497C6.33694 2.65018 6.35952 2.8484 6.36503 3.04747C6.39526 3.38179 6.39526 3.71815 6.36503 4.05247C6.36503 4.33747 6.31253 4.55497 6.29003 4.70497C6.27353 4.83684 6.23816 4.96566 6.18503 5.08747L6.08753 5.26747H6.04253C5.97344 5.29502 5.89935 5.3078 5.82503 5.30497C5.72575 5.29552 5.63164 5.25631 5.55503 5.19247C5.42812 5.10699 5.31442 5.00339 5.21753 4.88497C5.07288 4.71071 4.94246 4.52511 4.82753 4.32997C4.66177 4.0587 4.51152 3.77825 4.37753 3.48997L4.25003 3.36247L3.92003 2.70997C3.78503 2.41747 3.65753 2.13997 3.55253 1.86997C3.5162 1.76645 3.44791 1.67715 3.35753 1.61497H3.32003L3.18503 1.54747C3.12885 1.51883 3.06779 1.50102 3.00503 1.49497H0.792527C0.70988 1.48346 0.625695 1.49098 0.546403 1.51698C0.467111 1.54298 0.394811 1.58676 0.335026 1.64497L0.297526 1.69747C0.28673 1.73928 0.28673 1.78316 0.297526 1.82497C0.300285 1.90025 0.318138 1.97422 0.350027 2.04247C0.672527 2.79247 1.02503 3.54247 1.40003 4.23247C1.77503 4.92247 2.11253 5.50747 2.39003 5.93497C2.66753 6.36247 2.95253 6.77497 3.24503 7.15747C3.53753 7.53997 3.72503 7.77997 3.82253 7.90747C3.89056 7.99379 3.96317 8.07641 4.04003 8.15497L4.24253 8.34997C4.42141 8.51583 4.61189 8.66872 4.81253 8.80747C5.07936 9.00111 5.35734 9.17892 5.64503 9.33997C5.97528 9.53229 6.3314 9.67625 6.70253 9.76747C7.08482 9.87749 7.48276 9.92311 7.88003 9.90247H8.75003C8.91023 9.89902 9.0631 9.83465 9.17753 9.72247V9.68497C9.20722 9.63941 9.22761 9.58844 9.23753 9.53497C9.24902 9.46293 9.24902 9.38951 9.23753 9.31747C9.23071 9.10615 9.24832 8.89475 9.29003 8.68747C9.31566 8.54197 9.36108 8.40066 9.42503 8.26747C9.47268 8.18313 9.53062 8.10503 9.59753 8.03497C9.63932 7.98865 9.68726 7.94827 9.74003 7.91497H9.80003C9.88095 7.89937 9.96439 7.90277 10.0438 7.92489C10.1232 7.94702 10.1963 7.98726 10.2575 8.04247C10.4387 8.17931 10.6046 8.33521 10.7525 8.50747C10.9025 8.69497 11.09 8.90497 11.3 9.13747C11.4731 9.3255 11.664 9.4963 11.87 9.64747L12.0275 9.74497C12.1589 9.82341 12.3001 9.88395 12.4475 9.92497C12.5917 9.97651 12.7468 9.98944 12.8975 9.96247H14.96C15.1552 9.95771 15.3439 9.89216 15.5 9.77497C15.5941 9.72896 15.6666 9.64832 15.7025 9.54997C15.7251 9.46138 15.7251 9.36856 15.7025 9.27997C15.698 9.20632 15.6855 9.13337 15.665 9.06247Z" fill="#888888"/>
</svg>
