<svg width="25" height="20" viewBox="0 0 25 20" fill="none" xmlns="http://www.w3.org/2000/svg">
<path fill-rule="evenodd" clip-rule="evenodd" d="M7.66002 0.819946H17.343C18.4922 0.823376 19.5933 1.28141 20.4059 2.09402C21.2186 2.90662 21.6766 4.00777 21.68 5.15697L21.68 5.15995L21.68 8.41995H19.68V5.16148C19.6778 4.54117 19.4304 3.94688 18.9917 3.50823C18.5531 3.06956 17.9587 2.82216 17.3384 2.81995H7.66163C7.0413 2.82216 6.44697 3.06956 6.0083 3.50823C5.56963 3.9469 5.32223 4.54123 5.32002 5.16156V7.99995H3.32002V5.15697C3.32344 4.00777 3.78148 2.90662 4.59409 2.09402C5.40669 1.28141 6.50784 0.823376 7.65704 0.819951L7.66002 0.819946Z" fill="#DADADA"/>
<path fill-rule="evenodd" clip-rule="evenodd" d="M5.32002 14.8383V11.4799H3.32002V14.8399L3.32002 14.8429C3.32345 15.9921 3.78148 17.0933 4.59409 17.9059C5.40669 18.7185 6.50784 19.1765 7.65704 19.1799L17.34 19.1799L17.343 19.1799C18.4922 19.1765 19.5933 18.7185 20.4059 17.9059C21.2186 17.0933 21.6766 15.9921 21.68 14.8429L21.68 14.8399V11.9999H19.68V14.8384C19.6778 15.4587 19.4304 16.053 18.9917 16.4917C18.553 16.9303 17.9587 17.1778 17.3384 17.1799H7.66168C7.04133 17.1778 6.44699 16.9303 6.0083 16.4917C5.56963 16.053 5.32223 15.4587 5.32002 14.8383Z" fill="#DADADA"/>
<path fill-rule="evenodd" clip-rule="evenodd" d="M4.32002 10.0657L7.65712 13.4028L6.24291 14.8171L4.32002 12.8942L2.39712 14.8171L0.98291 13.4028L4.32002 10.0657Z" fill="#DADADA"/>
<path fill-rule="evenodd" clip-rule="evenodd" d="M20.68 7.00573L18.7571 5.08284L17.3429 6.49705L20.68 9.83416L24.0171 6.49705L22.6029 5.08284L20.68 7.00573Z" fill="#DADADA"/>
</svg>
