<svg width="24" height="15" viewBox="0 0 24 15" fill="none" xmlns="http://www.w3.org/2000/svg">
<g clip-path="url(#clip0)">
<path d="M23.61 6.33799C22.266 4.5625 20.5419 3.11006 18.564 2.08699C16.5325 1.04486 14.2822 0.501312 11.999 0.501312C9.71583 0.501312 7.46546 1.04486 5.434 2.08699C3.45675 3.11018 1.7331 4.56222 0.388998 6.33699C0.13638 6.67209 -0.000259399 7.08034 -0.000259399 7.49999C-0.000259399 7.91964 0.13638 8.32789 0.388998 8.66299C1.73318 10.4379 3.4568 11.8903 5.434 12.914C7.46555 13.9558 9.71589 14.4992 11.999 14.4992C14.2821 14.4992 16.5324 13.9558 18.564 12.914C20.5415 11.8903 22.2654 10.4379 23.61 8.66299C23.8627 8.32811 23.9994 7.92001 23.9994 7.50049C23.9994 7.08097 23.8627 6.67287 23.61 6.33799ZM5.87 12.016C4.02363 11.06 2.41412 9.70362 1.159 8.04599C1.04072 7.88891 0.976746 7.69762 0.976746 7.50099C0.976746 7.30436 1.04072 7.11307 1.159 6.95599C2.41433 5.29831 4.02378 3.94167 5.87 2.98499C6.38354 2.72139 6.91327 2.49059 7.456 2.29399C6.7427 2.96082 6.17402 3.76709 5.78522 4.6628C5.39642 5.5585 5.1958 6.52454 5.1958 7.50099C5.1958 8.47744 5.39642 9.44348 5.78522 10.3392C6.17402 11.2349 6.7427 12.0412 7.456 12.708C6.913 12.5117 6.38324 12.2805 5.87 12.016ZM11.999 13.501C10.4311 13.4765 8.93704 12.831 7.8446 11.7061C6.75215 10.5812 6.15062 9.06889 6.172 7.50099C6.15062 5.93309 6.75215 4.42075 7.8446 3.29587C8.93704 2.17099 10.4311 1.52548 11.999 1.50099C13.5669 1.52548 15.061 2.17099 16.1534 3.29587C17.2458 4.42075 17.8474 5.93309 17.826 7.50099C17.8474 9.06889 17.2458 10.5812 16.1534 11.7061C15.061 12.831 13.5669 13.4765 11.999 13.501ZM22.84 8.04899C21.5845 9.70668 19.9747 11.063 18.128 12.019C17.6151 12.2823 17.0861 12.5127 16.544 12.709C17.2572 12.0421 17.8257 11.2358 18.2144 10.3401C18.6032 9.44439 18.8037 8.4784 18.8037 7.50199C18.8037 6.52558 18.6032 5.55959 18.2144 4.66389C17.8257 3.7682 17.2572 2.9619 16.544 2.29499C17.0868 2.49176 17.6166 2.72289 18.13 2.98699C19.9765 3.94363 21.5863 5.30026 22.842 6.95799C22.9595 7.1151 23.0229 7.30612 23.0225 7.50232C23.0221 7.69853 22.9581 7.88931 22.84 8.04599V8.04899Z" fill="#00ADEF"/>
<path d="M11.999 4.93399C11.4884 4.91947 10.9851 5.05758 10.5535 5.33067C10.1219 5.60377 9.78153 5.99941 9.576 6.46701C9.37047 6.9346 9.3091 7.45287 9.39975 7.95554C9.4904 8.4582 9.72895 8.92239 10.0849 9.28873C10.4408 9.65507 10.8979 9.9069 11.3977 10.012C11.8976 10.1171 12.4174 10.0707 12.8907 9.87877C13.3641 9.68681 13.7694 9.35801 14.0548 8.93443C14.3402 8.51086 14.4928 8.01176 14.493 7.50099C14.5018 6.83011 14.2442 6.18312 13.7767 5.7019C13.3092 5.22068 12.6699 4.94452 11.999 4.93399ZM11.999 9.06299C11.688 9.07215 11.3814 8.98829 11.1184 8.82217C10.8553 8.65604 10.6479 8.41519 10.5225 8.13046C10.3971 7.84573 10.3596 7.53006 10.4147 7.22388C10.4698 6.91769 10.615 6.63491 10.8318 6.41173C11.0485 6.18855 11.3269 6.03514 11.6314 5.97112C11.9358 5.9071 12.2524 5.93539 12.5407 6.05237C12.829 6.16936 13.0758 6.3697 13.2495 6.62777C13.4233 6.88584 13.5161 7.18989 13.516 7.50099C13.5213 7.90911 13.3647 8.3027 13.0803 8.5955C12.796 8.8883 12.4071 9.05641 11.999 9.06299Z" fill="#00ADEF"/>
</g>
<defs>
<clipPath id="clip0">
<rect width="24" height="14" fill="white" transform="translate(0 0.5)"/>
</clipPath>
</defs>
</svg>
