<svg width="24" height="24" viewBox="0 0 24 24" fill="none" xmlns="http://www.w3.org/2000/svg">
<path d="M2 21.9999H11.09V12.9099H2V21.9999ZM3.82 14.7299H9.27V20.1699H3.82V14.7299Z" fill="#00ADEF"/>
<path d="M7.46 16.55H5.64V18.3701H7.46V16.55Z" fill="#00ADEF"/>
<path d="M18.37 20.1799H16.55V21.9999H18.37V20.1799Z" fill="#00ADEF"/>
<path d="M22 20.1799H20.18V21.9999H22V20.1799Z" fill="#00ADEF"/>
<path d="M20.18 14.7299H18.36V12.9099H12.91V21.9999H14.73V16.5499H16.55V18.3599H22V12.9099H20.18V14.7299Z" fill="#00ADEF"/>
<path d="M2 11.09H11.09V2H2V11.09ZM3.82 3.82H9.27V9.27H3.82V3.82Z" fill="#00ADEF"/>
<path d="M7.46 5.63989H5.64V7.45989H7.46V5.63989Z" fill="#00ADEF"/>
<path d="M12.91 2V11.09H22V2H12.91ZM20.18 9.27H14.73V3.82H20.18V9.27Z" fill="#00ADEF"/>
<path d="M18.37 5.63989H16.55V7.45989H18.37V5.63989Z" fill="#00ADEF"/>
</svg>
