<svg width="69" height="48" viewBox="0 0 69 48" fill="none" xmlns="http://www.w3.org/2000/svg">
<g clip-path="url(#clip0)">
<path d="M56.3881 18.7101C56.1534 18.7101 55.914 18.7101 55.6772 18.7321C55.1757 12.7915 50.1295 8.15236 44.1435 8.15236C42.5531 8.15448 40.9797 8.48186 39.5197 9.11453C38.4562 6.42312 36.6095 4.11462 34.2198 2.48915C31.8302 0.86368 29.008 -0.00361209 26.1202 1.13072e-05C18.1808 1.13072e-05 11.7209 6.44764 11.7209 14.3724C11.7209 14.5921 11.7209 14.8156 11.7389 15.0412C8.49379 15.492 5.51986 17.1014 3.36339 19.5737C1.20692 22.046 0.0127025 25.2153 8.37499e-05 28.4994C-0.00946021 31.2129 0.796907 33.8662 2.31402 36.1134C3.83114 38.3606 5.98858 40.0974 8.50497 41.0972C9.85113 41.6482 12.2407 41.9616 12.4438 41.4965C12.5255 41.3108 12.3223 41.1172 11.7887 40.8717C10.4014 40.2435 9.06913 39.4996 7.80605 38.648C5.26512 36.8514 3.92497 35.0009 3.24991 33.7693C2.41368 32.1397 1.98196 30.3319 1.9914 28.4994C1.99984 25.5451 3.12915 22.7047 5.15017 20.5546C7.17121 18.4044 9.93259 17.1055 12.874 16.9216C13.0089 16.913 13.1406 16.877 13.2612 16.8157C13.3818 16.7544 13.4887 16.6692 13.5753 16.5651C13.6619 16.4611 13.7265 16.3404 13.7652 16.2106C13.8038 16.0807 13.8156 15.9443 13.7999 15.8097C13.7433 15.3327 13.714 14.8529 13.7123 14.3724C13.7123 7.54952 19.288 1.99619 26.1202 1.99619C28.7771 2.00461 31.362 2.863 33.4984 4.44637C35.6349 6.02973 37.2114 8.25538 37.9984 10.7993C38.0417 10.9423 38.1166 11.0737 38.2174 11.1837C38.3182 11.2938 38.4423 11.3798 38.5807 11.4354C38.7191 11.4909 38.8682 11.5147 39.0169 11.5048C39.1656 11.4949 39.3103 11.4516 39.4401 11.3782C40.8956 10.5596 42.5389 10.1357 44.2077 10.1486C45.8766 10.1615 47.5132 10.6107 48.9559 11.4518C50.3986 12.2928 51.5972 13.4966 52.4342 14.9443C53.2706 16.3919 53.7157 18.0333 53.7259 19.7062V19.824C53.7239 19.9691 53.7539 20.1128 53.8133 20.2451C53.8728 20.3774 53.9602 20.4952 54.0694 20.5902C54.1787 20.6852 54.3072 20.7552 54.4465 20.7953C54.5857 20.8353 54.7316 20.8444 54.8749 20.8221C55.3759 20.7441 55.8825 20.7047 56.3902 20.7043C58.9604 20.6985 61.428 21.7157 63.2513 23.5325C65.0741 25.3493 66.1026 27.817 66.1117 30.3938C66.1117 33.5577 64.3632 36.8115 61.8325 38.4204C60.6379 39.2009 60.6155 39.3486 57.565 40.8657C57.2225 41.0354 56.844 41.2649 56.9537 41.5025C57.0274 41.6662 57.3699 41.738 57.846 41.738C58.9579 41.7063 60.057 41.489 61.0977 41.0952C63.5587 40.0241 65.5751 38.1341 66.8064 35.7447C68.0382 33.3553 68.4091 30.613 67.8562 27.9812C67.3039 25.3493 65.8617 22.9894 63.7742 21.3002C61.6862 19.611 59.0809 18.6962 56.3983 18.7101H56.3881Z" fill="#231F20"/>
<path d="M14.101 45.3128V46.8518H13.3164V43.3286H14.101V44.698H14.5371L15.5327 43.3286H16.4288L15.1006 45.0373L16.5284 46.8518H15.6323L14.4674 45.3128H14.101Z" fill="#231F20"/>
<path d="M18.3379 46.938C17.4816 46.938 16.6055 46.367 16.6055 45.0975C16.6055 43.8279 17.4816 43.249 18.3379 43.249C19.1942 43.249 20.0703 43.8259 20.0703 45.0975C20.0703 46.369 19.1942 46.938 18.3379 46.938ZM19.2659 45.0975C19.2659 44.285 18.8278 43.8858 18.3379 43.8858C17.8481 43.8858 17.4099 44.285 17.4099 45.0975C17.4099 45.9099 17.8481 46.2952 18.3379 46.2952C18.8278 46.2952 19.2659 45.9119 19.2659 45.0975Z" fill="#231F20"/>
<path d="M23.0978 45.3527H21.5286V46.8518H20.75V43.3286H21.5286V44.7359H23.0978V43.3286H23.8744V46.8518H23.0978V45.3527Z" fill="#231F20"/>
<path d="M27.68 47.6848V46.8524H25.1112V47.6848H24.4062V46.2436H24.6054C25.0036 46.2436 25.2028 45.7326 25.2585 44.447L25.3103 43.3271H27.8732V46.2416H28.3969V47.6828L27.68 47.6848ZM25.9873 43.944L25.9555 44.5428C25.9017 45.4731 25.7723 45.9761 25.4975 46.2456H27.0905V43.944H25.9873Z" fill="#231F20"/>
<path d="M31.424 46.8518V44.4085L29.7513 46.8518H28.9727V43.3286H29.7513V45.7839L31.424 43.3286H32.2026V46.8518H31.424Z" fill="#231F20"/>
<path d="M36.5948 47.6842H35.8878V46.8518H33.0781V43.3286H33.8527V46.237H35.2904V43.3286H36.069V46.237H36.5928L36.5948 47.6842Z" fill="#231F20"/>
<path d="M39.6271 46.8518V44.4085L37.9544 46.8518H37.1758V43.3286H37.9544V45.7839L39.6271 43.3286H40.4057V46.8518H39.6271Z" fill="#231F20"/>
<path d="M42.752 46.938C41.8957 46.938 41.0195 46.367 41.0195 45.0975C41.0195 43.8279 41.8957 43.249 42.752 43.249C43.6082 43.249 44.4844 43.8259 44.4844 45.0975C44.4844 46.369 43.6102 46.938 42.752 46.938ZM43.6799 45.0975C43.6799 44.285 43.2419 43.8858 42.752 43.8858C42.2621 43.8858 41.824 44.285 41.824 45.0975C41.824 45.9099 42.2621 46.2952 42.752 46.2952C43.2419 46.2952 43.6799 45.9119 43.6799 45.0975Z" fill="#231F20"/>
<path d="M47.5021 45.3527H45.9349V46.8518H45.1562V43.3286H45.9349V44.7359H47.5021V43.3286H48.2807V46.8518H47.5021V45.3527Z" fill="#231F20"/>
<path d="M50.7014 46.2892C51.0995 46.2892 51.4263 46.1255 51.5635 45.7981H52.3282C52.2271 46.1387 52.0157 46.4358 51.7271 46.6422C51.4385 46.8486 51.0894 46.9527 50.7353 46.9379C49.6042 46.9379 48.957 46.0736 48.957 45.0635C48.957 44.0036 49.6839 43.249 50.6835 43.249C51.7606 43.249 52.4339 44.1273 52.3699 45.313H49.7476C49.7994 45.9678 50.2574 46.2892 50.7014 46.2892ZM51.5777 44.7441C51.5772 44.6268 51.5538 44.5107 51.5086 44.4025C51.4634 44.2943 51.3973 44.1962 51.314 44.1137C51.2306 44.0314 51.1315 43.9663 51.0233 43.9224C50.9145 43.8784 50.7985 43.8565 50.6815 43.8579C50.4408 43.8524 50.2077 43.9425 50.0327 44.1085C49.8579 44.2744 49.7554 44.5029 49.7476 44.7441H51.5777Z" fill="#231F20"/>
<path d="M53.7921 43.8004C53.9018 43.6232 54.0568 43.4787 54.2413 43.3817C54.4252 43.2849 54.6321 43.2392 54.8399 43.2495C55.6961 43.2495 56.3491 43.9641 56.3491 45.0899C56.3491 46.2158 55.6961 46.9384 54.8399 46.9384C54.6321 46.9487 54.4252 46.903 54.2413 46.8061C54.0568 46.7092 53.9018 46.5647 53.7921 46.3875V48.0004H53.0156V43.3293H53.7921V43.8004ZM55.5386 45.0899C55.5386 44.3513 55.2119 43.8923 54.6687 43.8923C54.1585 43.8923 53.7606 44.2915 53.7606 45.0899C53.7606 45.8884 54.1585 46.3036 54.6687 46.3036C55.2119 46.3116 55.5386 45.8385 55.5386 45.0899Z" fill="#231F20"/>
<path d="M14.3505 33.9629C15.6947 33.9629 16.8397 34.8512 16.8397 36.6198C16.8397 38.3884 15.6947 39.2687 14.3505 39.2687C13.0064 39.2687 11.8594 38.3884 11.8594 36.6198C11.8594 34.8512 13.0044 33.9629 14.3505 33.9629ZM14.3505 37.8754C14.7787 37.8754 15.1072 37.556 15.1072 36.6198C15.1072 35.6836 14.7787 35.3562 14.3505 35.3562C13.9224 35.3562 13.5938 35.6836 13.5938 36.6198C13.5938 37.556 13.9204 37.8754 14.3505 37.8754Z" fill="#231F20"/>
<path d="M17.25 36.0868V35.9311C17.2998 34.0886 17.8474 32.5535 20.0379 32.338L21.5094 32.1982V33.7353L19.7013 33.9349C19.0362 34.0187 18.5065 34.2723 18.4468 35.2184C18.7336 34.6455 19.3648 34.4599 19.9283 34.4599C21.0295 34.4599 22.0212 35.2584 22.0212 36.7894C22.0212 38.4383 20.7766 39.2607 19.5918 39.2607C18.3194 39.2687 17.25 38.3265 17.25 36.0868ZM20.3107 36.7974C20.3107 35.965 19.9562 35.7215 19.5779 35.7215C19.1995 35.7215 18.9068 35.975 18.9068 36.7974C18.9068 37.538 19.2413 37.8754 19.5958 37.8754C19.9502 37.8754 20.3107 37.5839 20.3107 36.7974Z" fill="#231F20"/>
<path d="M22.3047 37.7817H22.456C22.7667 37.7817 23.0694 37.4624 23.145 35.7975L23.2307 34.1128H27.283V39.1471H25.6023V35.4782H24.7779L24.7022 36.6579C24.6087 38.0812 24.079 39.1471 22.6233 39.1471H22.3047V37.7817Z" fill="#231F20"/>
<path d="M30.3705 35.1503C30.2776 35.1407 30.1838 35.15 30.0945 35.1776C30.0052 35.2051 29.9225 35.2504 29.8511 35.3108C29.7797 35.3712 29.7212 35.4454 29.6791 35.5289C29.6369 35.6125 29.612 35.7037 29.6058 35.797H28.1581C28.2338 34.8409 28.9925 33.9326 30.488 33.9326C31.7844 33.9326 32.7083 34.4756 32.6924 36.1603V37.1245C32.6815 37.7996 32.7094 38.4748 32.776 39.1466H31.2108V38.4919C30.8743 39.0448 30.3128 39.2684 29.6736 39.2684C28.7894 39.2684 28.0586 38.6596 28.0586 37.7613C28.0586 36.5915 29.1419 36.0965 31.0455 35.9647V35.825C31.0436 35.2621 30.7329 35.1503 30.3705 35.1503ZM29.7393 37.5457C29.7393 37.7613 29.9006 38.0048 30.2948 38.0048C30.7329 38.0048 31.1033 37.8052 31.1033 37.0307V36.8809C30.2112 36.9469 29.7393 37.1165 29.7393 37.5557V37.5457Z" fill="#231F20"/>
<path d="M36.2422 37.4903C35.873 37.5783 35.4947 37.6225 35.1151 37.6221C34.1055 37.6221 33.4922 37.097 33.4922 35.9752V34.1128H35.1748V35.6838C35.1748 36.2547 35.3501 36.3485 35.83 36.3485C35.9694 36.3498 36.1082 36.331 36.2422 36.2926V34.1128H37.9249V39.1471H36.2422V37.4903Z" fill="#231F20"/>
<path d="M38.9219 34.1128H40.6045V35.8914H41.9248V34.1128H43.6094V39.1471H41.9268V37.2567H40.6065V39.1471H38.9239L38.9219 34.1128Z" fill="#231F20"/>
<path d="M44.6172 34.1128H46.2979V35.582H46.8953C48.3071 35.582 48.9045 36.1249 48.9045 37.3406C48.9045 38.698 48.3748 39.1471 46.9968 39.1471H44.6172V34.1128ZM46.8455 37.8835C47.19 37.8835 47.4091 37.7718 47.4091 37.3406C47.4091 36.9573 47.19 36.8455 46.8534 36.8455H46.2979V37.8835H46.8455ZM49.47 34.1128H51.1507V39.1471H49.47V34.1128Z" fill="#231F20"/>
<path d="M52.1602 34.113H53.7156V36.9076L55.2726 34.113H56.8281V39.1473H55.2726V36.4046L53.7156 39.1473H52.1602V34.113ZM52.8675 32.3623H53.863C53.9047 32.5859 54.1161 32.6996 54.4941 32.6996C54.8727 32.6996 55.0917 32.5859 55.1253 32.3623H56.1212C56.0537 33.055 55.5237 33.5321 54.4901 33.5321C53.457 33.5321 52.9173 33.055 52.8675 32.3623Z" fill="#231F20"/>
</g>
<defs>
<clipPath id="clip0">
<rect width="68.093" height="48" fill="white"/>
</clipPath>
</defs>
</svg>
