<svg width="68" height="48" viewBox="0 0 68 48" fill="none" xmlns="http://www.w3.org/2000/svg">
<g clip-path="url(#clip0)">
<path d="M56.3111 18.7101C56.0766 18.7101 55.8376 18.7101 55.6011 18.7321C55.1003 12.7915 50.061 8.15236 44.0832 8.15236C42.4949 8.15447 40.9236 8.48186 39.4657 9.11453C38.4036 6.42312 36.5595 4.11462 34.1731 2.48915C31.7867 0.86368 28.9684 -0.00361209 26.0845 1.13072e-05C18.1559 1.13072e-05 11.7049 6.44764 11.7049 14.3724C11.7049 14.592 11.7049 14.8156 11.7228 15.0412C8.48218 15.492 5.51231 17.1014 3.35879 19.5737C1.20527 22.046 0.0126851 25.2153 8.36354e-05 28.4994C-0.00944728 31.2128 0.795818 33.8662 2.31086 36.1134C3.82591 38.3606 5.98039 40.0974 8.49335 41.0972C9.83767 41.6482 12.224 41.9616 12.4268 41.4964C12.5083 41.3108 12.3055 41.1172 11.7726 40.8717C10.3871 40.2435 9.05673 39.4996 7.79538 38.6479C5.25792 36.8514 3.9196 35.0009 3.24547 33.7693C2.41039 32.1397 1.97926 30.3319 1.98868 28.4994C1.9971 25.5451 3.12488 22.7047 5.14313 20.5546C7.16141 18.4044 9.91901 17.1055 12.8564 16.9216C12.9911 16.913 13.1227 16.877 13.2431 16.8157C13.3635 16.7544 13.4702 16.6692 13.5568 16.5651C13.6432 16.4611 13.7078 16.3404 13.7463 16.2106C13.7849 16.0807 13.7967 15.9443 13.7811 15.8097C13.7245 15.3327 13.6953 14.8528 13.6935 14.3724C13.6935 7.54952 19.2616 1.99619 26.0845 1.99619C28.7377 2.00461 31.3191 2.863 33.4526 4.44637C35.5862 6.02973 37.1605 8.25538 37.9464 10.7993C37.9898 10.9423 38.0645 11.0736 38.1651 11.1837C38.2658 11.2938 38.3898 11.3798 38.528 11.4354C38.6661 11.4909 38.815 11.5147 38.9636 11.5048C39.1121 11.4949 39.2565 11.4516 39.3862 11.3782C40.8397 10.5596 42.4807 10.1357 44.1473 10.1486C45.8139 10.1615 47.4483 10.6107 48.889 11.4518C50.3297 12.2928 51.5267 13.4966 52.3625 14.9443C53.1978 16.3919 53.6423 18.0333 53.6525 19.7062V19.824C53.6505 19.9691 53.6804 20.1128 53.7398 20.2451C53.7991 20.3774 53.8864 20.4952 53.9955 20.5902C54.1046 20.6852 54.233 20.7552 54.3721 20.7952C54.5111 20.8353 54.6567 20.8444 54.7999 20.8221C55.3002 20.744 55.8062 20.7047 56.3131 20.7043C58.8799 20.6985 61.3441 21.7157 63.1649 23.5325C64.9851 25.3493 66.0122 27.817 66.0214 30.3937C66.0214 33.5577 64.2752 36.8114 61.748 38.4204C60.555 39.2009 60.5327 39.3486 57.4864 40.8657C57.1443 41.0353 56.7663 41.2649 56.8759 41.5024C56.9495 41.6662 57.2915 41.738 57.767 41.738C58.8773 41.7063 59.975 41.489 61.0142 41.0952C63.4719 40.0241 65.4855 38.1341 66.7151 35.7447C67.9452 33.3552 68.3156 30.6129 67.7635 27.9812C67.2119 25.3493 65.7717 22.9894 63.687 21.3002C61.6019 19.611 59.0001 18.6961 56.3212 18.7101H56.3111Z" fill="#231F20"/>
<path d="M14.0803 45.3128V46.8518H13.2969V43.3286H14.0803V44.698H14.5159L15.5102 43.3286H16.405L15.0786 45.0373L16.5044 46.8518H15.6096L14.4463 45.3128H14.0803Z" fill="#231F20"/>
<path d="M18.3121 46.938C17.457 46.938 16.582 46.367 16.582 45.0975C16.582 43.8279 17.457 43.249 18.3121 43.249C19.1672 43.249 20.0422 43.8259 20.0422 45.0975C20.0422 46.369 19.1672 46.938 18.3121 46.938ZM19.2388 45.0975C19.2388 44.285 18.8013 43.8858 18.3121 43.8858C17.8229 43.8858 17.3854 44.285 17.3854 45.0975C17.3854 45.9099 17.8229 46.2952 18.3121 46.2952C18.8013 46.2952 19.2388 45.9119 19.2388 45.0975Z" fill="#231F20"/>
<path d="M23.0672 45.3527H21.5002V46.8518H20.7227V43.3286H21.5002V44.7359H23.0672V43.3286H23.8428V46.8518H23.0672V45.3527Z" fill="#231F20"/>
<path d="M27.6442 47.6848V46.8524H25.079V47.6848H24.375V46.2436H24.5739C24.9716 46.2436 25.1704 45.7326 25.2261 44.447L25.2778 43.3271H27.8372V46.2416H28.3602V47.6828L27.6442 47.6848ZM25.9539 43.944L25.9221 44.5428C25.8684 45.4731 25.7392 45.9761 25.4647 46.2456H27.0556V43.944H25.9539Z" fill="#231F20"/>
<path d="M31.3776 46.8518V44.4085L29.7072 46.8518H28.9297V43.3286H29.7072V45.7839L31.3776 43.3286H32.1552V46.8518H31.3776Z" fill="#231F20"/>
<path d="M36.5431 47.6842H35.8371V46.8518H33.0312V43.3286H33.8048V46.237H35.2405V43.3286H36.0181V46.237H36.5411L36.5431 47.6842Z" fill="#231F20"/>
<path d="M39.573 46.8518V44.4085L37.9025 46.8518H37.125V43.3286H37.9025V45.7839L39.573 43.3286H40.3505V46.8518H39.573Z" fill="#231F20"/>
<path d="M42.691 46.938C41.8359 46.938 40.9609 46.367 40.9609 45.0975C40.9609 43.8279 41.8359 43.249 42.691 43.249C43.5461 43.249 44.4211 43.8259 44.4211 45.0975C44.4211 46.369 43.5481 46.938 42.691 46.938ZM43.6177 45.0975C43.6177 44.285 43.1802 43.8858 42.691 43.8858C42.2018 43.8858 41.7644 44.285 41.7644 45.0975C41.7644 45.9099 42.2018 46.2952 42.691 46.2952C43.1802 46.2952 43.6177 45.9119 43.6177 45.0975Z" fill="#231F20"/>
<path d="M47.4403 45.3527H45.8752V46.8518H45.0977V43.3286H45.8752V44.7359H47.4403V43.3286H48.2178V46.8518H47.4403V45.3527Z" fill="#231F20"/>
<path d="M50.6326 46.2892C51.0302 46.2892 51.3565 46.1255 51.4935 45.7981H52.2572C52.1562 46.1387 51.9451 46.4358 51.6569 46.6422C51.3687 46.8486 51.02 46.9527 50.6664 46.9379C49.5369 46.9379 48.8906 46.0736 48.8906 45.0635C48.8906 44.0036 49.6165 43.249 50.6148 43.249C51.6904 43.249 52.3628 44.1273 52.2988 45.313H49.6801C49.7318 45.9678 50.1892 46.2892 50.6326 46.2892ZM51.5077 44.7441C51.5072 44.6268 51.4838 44.5107 51.4387 44.4025C51.3935 44.2943 51.3275 44.1962 51.2443 44.1137C51.1611 44.0314 51.0621 43.9663 50.9541 43.9224C50.8455 43.8784 50.7296 43.8565 50.6127 43.8579C50.3724 43.8524 50.1395 43.9425 49.9649 44.1085C49.7903 44.2744 49.6879 44.5029 49.6801 44.7441H51.5077Z" fill="#231F20"/>
<path d="M53.7168 43.8004C53.8264 43.6232 53.9812 43.4787 54.1654 43.3817C54.3491 43.2849 54.5556 43.2392 54.7632 43.2495C55.6183 43.2495 56.2703 43.9641 56.2703 45.0899C56.2703 46.2158 55.6183 46.9384 54.7632 46.9384C54.5556 46.9487 54.3491 46.903 54.1654 46.8061C53.9812 46.7092 53.8264 46.5647 53.7168 46.3875V48.0004H52.9414V43.3293H53.7168V43.8004ZM55.4609 45.0899C55.4609 44.3513 55.1346 43.8923 54.5922 43.8923C54.0827 43.8923 53.6853 44.2915 53.6853 45.0899C53.6853 45.8884 54.0827 46.3036 54.5922 46.3036C55.1346 46.3116 55.4609 45.8385 55.4609 45.0899Z" fill="#231F20"/>
<path d="M14.3315 33.9629C15.6738 33.9629 16.8172 34.8512 16.8172 36.6198C16.8172 38.3884 15.6738 39.2687 14.3315 39.2687C12.9892 39.2687 11.8438 38.3884 11.8438 36.6198C11.8438 34.8512 12.9872 33.9629 14.3315 33.9629ZM14.3315 37.8754C14.7591 37.8754 15.0871 37.556 15.0871 36.6198C15.0871 35.6836 14.7591 35.3562 14.3315 35.3562C13.9039 35.3562 13.5758 35.6836 13.5758 36.6198C13.5758 37.556 13.902 37.8754 14.3315 37.8754Z" fill="#231F20"/>
<path d="M17.2266 36.0868V35.9311C17.2763 34.0886 17.8231 32.5535 20.0106 32.338L21.4802 32.1982V33.7353L19.6745 33.9349C19.0103 34.0187 18.4814 34.2723 18.4217 35.2184C18.7081 34.6455 19.3385 34.4599 19.9012 34.4599C21.0009 34.4599 21.9912 35.2584 21.9912 36.7894C21.9912 38.4383 20.7484 39.2607 19.5652 39.2607C18.2945 39.2687 17.2266 38.3265 17.2266 36.0868ZM20.2831 36.7974C20.2831 35.965 19.9291 35.7215 19.5513 35.7215C19.1734 35.7215 18.8811 35.975 18.8811 36.7974C18.8811 37.538 19.2152 37.8754 19.5692 37.8754C19.9231 37.8754 20.2831 37.5839 20.2831 36.7974Z" fill="#231F20"/>
<path d="M22.2734 37.7817H22.4246C22.7348 37.7817 23.0371 37.4624 23.1126 35.7975L23.1981 34.1128H27.2449V39.1471H25.5666V35.4782H24.7433L24.6677 36.6579C24.5743 38.0811 24.0453 39.1471 22.5916 39.1471H22.2734V37.7817Z" fill="#231F20"/>
<path d="M30.3283 35.1503C30.2355 35.1407 30.1418 35.15 30.0527 35.1776C29.9635 35.2051 29.8809 35.2504 29.8096 35.3108C29.7383 35.3712 29.6799 35.4454 29.6378 35.5289C29.5957 35.6125 29.5708 35.7037 29.5647 35.797H28.1189C28.1945 34.8409 28.9522 33.9326 30.4456 33.9326C31.7402 33.9326 32.6629 34.4756 32.647 36.1603V37.1245C32.6361 37.7996 32.664 38.4748 32.7305 39.1466H31.1675V38.4919C30.8314 39.0448 30.2706 39.2684 29.6323 39.2684C28.7494 39.2684 28.0195 38.6596 28.0195 37.7613C28.0195 36.5915 29.1013 36.0965 31.0024 35.9647V35.825C31.0004 35.2621 30.6902 35.1503 30.3283 35.1503ZM29.6979 37.5457C29.6979 37.7613 29.859 38.0048 30.2527 38.0048C30.6902 38.0048 31.0601 37.8052 31.0601 37.0307V36.8809C30.1692 36.9469 29.6979 37.1165 29.6979 37.5557V37.5457Z" fill="#231F20"/>
<path d="M36.1915 37.4903C35.8228 37.5783 35.4451 37.6225 35.066 37.6221C34.0578 37.6221 33.4453 37.097 33.4453 35.9752V34.1128H35.1257V35.6838C35.1257 36.2547 35.3006 36.3485 35.7799 36.3485C35.9191 36.3498 36.0577 36.331 36.1915 36.2926V34.1128H37.8719V39.1471H36.1915V37.4903Z" fill="#231F20"/>
<path d="M38.8711 34.1128H40.5515V35.8914H41.8699V34.1128H43.5522V39.1471H41.8719V37.2567H40.5534V39.1471H38.8731L38.8711 34.1128Z" fill="#231F20"/>
<path d="M44.5547 34.1128H46.2331V35.582H46.8296C48.2396 35.582 48.8362 36.1249 48.8362 37.3406C48.8362 38.698 48.3072 39.1471 46.9311 39.1471H44.5547V34.1128ZM46.78 37.8835C47.124 37.8835 47.3427 37.7718 47.3427 37.3406C47.3427 36.9573 47.124 36.8455 46.7879 36.8455H46.2331V37.8835H46.78ZM49.4009 34.1128H51.0793V39.1471H49.4009V34.1128Z" fill="#231F20"/>
<path d="M52.0898 34.113H53.6432V36.9076L55.1981 34.113H56.7514V39.1473H55.1981V36.4046L53.6432 39.1473H52.0898V34.113ZM52.7962 32.3623H53.7904C53.832 32.5859 54.0431 32.6996 54.4206 32.6996C54.7987 32.6996 55.0174 32.5859 55.0509 32.3623H56.0455C55.978 33.055 55.4487 33.5321 54.4166 33.5321C53.3849 33.5321 52.846 33.055 52.7962 32.3623Z" fill="#231F20"/>
<circle cx="56" cy="11.5" r="11" fill="white"/>
<path d="M56 22.999C53.7255 22.999 51.5021 22.3246 49.6109 21.0609C47.7198 19.7973 46.2458 18.0012 45.3754 15.8999C44.505 13.7985 44.2772 11.4863 44.721 9.25549C45.1647 7.02471 46.26 4.9756 47.8683 3.3673C49.4766 1.759 51.5257 0.663728 53.7565 0.219998C55.9872 -0.223732 58.2995 0.00400627 60.4009 0.874414C62.5022 1.74482 64.2983 3.21881 65.5619 5.10997C66.8255 7.00114 67.5 9.22454 67.5 11.499C67.4966 14.548 66.2839 17.471 64.1279 19.627C61.972 21.7829 59.0489 22.9956 56 22.999ZM56 0.999029C53.9233 0.999029 51.8932 1.61484 50.1665 2.7686C48.4398 3.92235 47.094 5.56223 46.2993 7.48085C45.5045 9.39948 45.2966 11.5107 45.7018 13.5475C46.1069 15.5843 47.1069 17.4552 48.5754 18.9237C50.0438 20.3921 51.9148 21.3921 53.9516 21.7973C55.9884 22.2024 58.0996 21.9945 60.0182 21.1998C61.9368 20.405 63.5767 19.0592 64.7304 17.3325C65.8842 15.6058 66.5 13.5757 66.5 11.499C66.4968 8.71523 65.3896 6.04636 63.4211 4.07792C61.4527 2.10947 58.7838 1.0022 56 0.999029Z" fill="#FF0000"/>
<path d="M56.6236 17.021C56.479 17.1677 56.2879 17.2595 56.0831 17.281C55.8783 17.3024 55.6723 17.2521 55.5005 17.1385C55.3287 17.025 55.2016 16.8553 55.141 16.6585C55.0803 16.4617 55.0899 16.2499 55.1681 16.0594C55.2463 15.8688 55.3882 15.7114 55.5695 15.6138C55.7509 15.5163 55.9606 15.4848 56.1626 15.5246C56.3647 15.5645 56.5466 15.6733 56.6774 15.8324C56.8082 15.9915 56.8796 16.1911 56.8796 16.397C56.8816 16.513 56.8599 16.6281 56.8159 16.7354C56.7718 16.8427 56.7064 16.9399 56.6236 17.021Z" fill="#FF0000"/>
<path d="M56.5604 5.70898H55.4414V14.061H56.5604V5.70898Z" fill="#FF0000"/>
</g>
<defs>
<clipPath id="clip0">
<rect width="68" height="48" fill="white"/>
</clipPath>
</defs>
</svg>
