<svg width="38" height="48" viewBox="0 0 38 48" fill="none" xmlns="http://www.w3.org/2000/svg">
<path d="M37.2 10.8C37.2 10.6 37 10.4 36.8 10.2L27.2 0.6C26.8 0.2 26.4 0 26 0H2C1 0 0 0.8 0 2.4V46.4C0 46.8 0.2 47.2 0.6 47.4C0.8 47.6 1.2 47.8 1.6 48C1.6 48 1.6 48 1.8 48H2H35.2C35.4 48 35.4 48 35.6 48C35.6 48 35.6 48 35.8 48C36.2 48 36.6 47.8 36.8 47.4C37 47.2 37.2 46.8 37.4 46.4V11.6C37.2 11.4 37.2 11 37.2 10.8ZM27.4 3L34.2 10H27.2V3H27.4ZM35.6 46V46.2C35.6 46.2 35.6 46.4 35.4 46.4H35.2H2H1.8C1.8 46.4 1.6 46.4 1.6 46.2V46V35.4V32V2.4C1.6 2.2 1.6 1.6 2 1.6H25.6C25.6 1.8 25.6 1.8 25.6 2V11.6H35.2C35.4 11.6 35.4 11.6 35.6 11.6V32.4V34V46Z" fill="#00ADEF"/>
</svg>
