<svg width="253" height="253" viewBox="0 0 253 253" fill="none" xmlns="http://www.w3.org/2000/svg">
<path d="M205.83 178.897C206.529 175.107 206.884 171.261 206.89 167.407C206.9 153.296 202.184 139.588 193.494 128.471C184.804 117.353 172.64 109.466 158.945 106.069C145.249 102.671 130.809 103.959 117.931 109.726C105.052 115.493 94.4759 125.407 87.8899 137.887C85.4633 137.521 83.0138 137.327 80.5599 137.307C67.0524 137.307 54.0982 142.673 44.5469 152.224C34.9957 161.776 29.6299 174.73 29.6299 188.237C29.6299 201.745 34.9957 214.699 44.5469 224.25C54.0982 233.801 67.0524 239.167 80.5599 239.167H192C199.183 239.17 206.153 236.734 211.771 232.258C217.389 227.782 221.32 221.532 222.922 214.53C224.524 207.528 223.702 200.19 220.589 193.717C217.477 187.243 212.259 182.018 205.79 178.897H205.83Z" fill="#F5F5F5"/>
<path d="M25.7997 40.4283C24.7738 34.9837 25.7372 29.3518 28.5145 24.5578C31.2918 19.7637 35.6982 16.1264 40.9317 14.3081C46.1652 12.4897 51.8777 12.6111 57.0292 14.6502C62.1806 16.6894 66.4286 20.5106 68.9997 25.4183C69.8866 25.2826 70.7824 25.2124 71.6797 25.2083C74.1645 25.1507 76.6358 25.5905 78.9482 26.5016C81.2607 27.4127 83.3677 28.7769 85.1455 30.514C86.9232 32.251 88.3358 34.3259 89.3002 36.6166C90.2647 38.9074 90.7615 41.3678 90.7615 43.8533C90.7615 46.3388 90.2647 48.7992 89.3002 51.09C88.3358 53.3807 86.9232 55.4556 85.1455 57.1926C83.3677 58.9297 81.2607 60.2939 78.9482 61.205C76.6358 62.1161 74.1645 62.5558 71.6797 62.4983H30.8497C28.2185 62.501 25.6645 61.61 23.606 59.9711C21.5476 58.3323 20.1069 56.0428 19.52 53.4779C18.9332 50.9131 19.2349 48.2249 20.3758 45.854C21.5167 43.4831 23.4291 41.57 25.7997 40.4283Z" fill="#F5F5F5"/>
<path d="M235.459 77.4686C236.085 74.0353 235.462 70.4914 233.703 67.4773C231.944 64.4632 229.165 62.1777 225.868 61.034C222.571 59.8903 218.973 59.9637 215.725 61.241C212.478 62.5183 209.794 64.9153 208.159 67.9986C206.558 67.7684 204.927 67.8702 203.368 68.2978C201.808 68.7254 200.353 69.4695 199.093 70.4839C197.834 71.4983 196.797 72.7612 196.046 74.1939C195.296 75.6266 194.849 77.1984 194.733 78.8115C194.616 80.4246 194.833 82.0443 195.37 83.5698C195.907 85.0954 196.753 86.494 197.854 87.6785C198.955 88.8631 200.288 89.8083 201.77 90.4552C203.252 91.1021 204.852 91.4369 206.469 91.4386H232.269C233.951 91.463 235.589 90.9093 236.911 89.8702C238.233 88.8311 239.158 87.3696 239.532 85.7301C239.906 84.0906 239.705 82.3726 238.964 80.8633C238.222 79.354 236.985 78.1451 235.459 77.4386V77.4686Z" fill="#F5F5F5"/>
<path d="M193.31 193.248H59.6903C57.7709 193.25 55.87 192.873 54.0962 192.139C52.3225 191.405 50.7107 190.329 49.353 188.973C47.9953 187.616 46.9182 186.005 46.1834 184.232C45.4485 182.458 45.0703 180.558 45.0703 178.638V107.168C45.069 104.979 45.6257 102.826 46.6878 100.912C47.7498 98.9976 49.2822 97.3857 51.1403 96.2283L119.67 53.4582C121.719 52.1785 124.085 51.5 126.5 51.5C128.915 51.5 131.282 52.1785 133.33 53.4582L201.86 96.2283C203.718 97.3857 205.251 98.9976 206.313 100.912C207.375 102.826 207.932 104.979 207.93 107.168V178.638C207.93 180.558 207.552 182.458 206.817 184.232C206.082 186.005 205.005 187.616 203.648 188.973C202.29 190.329 200.678 191.405 198.904 192.139C197.131 192.873 195.23 193.25 193.31 193.248Z" fill="white" stroke="#231F20" stroke-width="3" stroke-miterlimit="10" stroke-linecap="round"/>
<path d="M69.0303 114.42V66.9102H184.43V114.42" fill="white"/>
<path d="M69.0303 114.42V66.9102H184.43V114.42" stroke="#231F20" stroke-width="3" stroke-miterlimit="10" stroke-linecap="round"/>
<path d="M46.71 100.879L113.3 142.629C117.369 144.777 121.9 145.899 126.5 145.899C131.1 145.899 135.631 144.777 139.7 142.629L206.28 100.859" stroke="#231F20" stroke-width="3" stroke-miterlimit="10" stroke-linecap="round"/>
<path d="M45.8398 183.316L118.84 141.226C121.176 139.875 123.826 139.164 126.525 139.164C129.223 139.164 131.874 139.875 134.21 141.226L207.21 183.316" fill="white"/>
<path d="M45.8398 183.316L118.84 141.226C121.176 139.875 123.826 139.164 126.525 139.164C129.223 139.164 131.874 139.875 134.21 141.226L207.21 183.316" stroke="#231F20" stroke-width="3" stroke-miterlimit="10"/>
<path d="M126.5 131.949C142.466 131.949 155.41 119.005 155.41 103.039C155.41 87.0724 142.466 74.1289 126.5 74.1289C110.533 74.1289 97.5898 87.0724 97.5898 103.039C97.5898 119.005 110.533 131.949 126.5 131.949Z" fill="white" stroke="#F2F3F4" stroke-width="2"/>
<path d="M133 96.3375L131.34 94.6875L123.91 102.118L125.56 103.767L133 96.3375ZM138 94.6875L125.61 107.188L120.66 102.188L119 103.877L125.61 110.487L139.77 96.3275L138 94.6875ZM112.28 103.887L118.89 110.497L120.54 108.847L113.93 102.228L112.28 103.887Z" fill="#00ADEF"/>
</svg>
