<svg width="201" height="20" viewBox="0 0 201 20" fill="none" xmlns="http://www.w3.org/2000/svg">
<path fill-rule="evenodd" clip-rule="evenodd" d="M119.538 0.776378C120.811 0.776378 121.994 1.004 123.123 1.44175C124.253 1.91452 125.203 2.52736 126.028 3.29778C126.852 4.08572 127.516 5.01374 127.982 6.06433C128.466 7.11492 128.681 8.27056 128.681 9.47873C128.681 10.6869 128.448 11.825 127.982 12.8931C127.498 13.9437 126.852 14.8717 126.028 15.6596C125.203 16.4476 124.253 17.0604 123.123 17.4982C121.994 17.9709 120.811 18.181 119.538 18.181H112.707V0.776367L119.538 0.776378ZM121.797 14.469C122.478 14.2063 123.052 13.8036 123.536 13.3133C124.02 12.823 124.36 12.2277 124.647 11.5798C124.916 10.9145 125.042 10.2316 125.042 9.47868C125.042 8.72573 124.916 8.00786 124.647 7.3425C124.378 6.67709 124.02 6.11681 123.536 5.62654C123.052 5.13626 122.478 4.75105 121.797 4.45337C121.115 4.19072 120.362 4.03313 119.538 4.03313H116.347V14.9067H119.538C120.362 14.9067 121.115 14.7666 121.797 14.4689V14.469Z" fill="black"/>
<path d="M153.673 0.776367V18.1635H150.033V0.776367H153.673Z" fill="black"/>
<path d="M170.632 11.353C170.095 13.3491 168.624 15.0476 165.72 15.0476C161.92 15.0476 160.718 12.176 160.718 9.47949C160.718 6.78299 161.937 3.9114 165.72 3.9114C168.624 3.9114 170.095 5.59231 170.632 7.60595H174.361C173.626 3.33357 170.399 0.479492 165.864 0.479492C160.7 0.479492 156.936 4.17405 156.936 9.47949C156.936 14.7675 160.683 18.4795 165.864 18.4795C170.399 18.4795 173.626 15.6429 174.361 11.3705H170.632V11.353Z" fill="black"/>
<path d="M200.393 0.776367V18.1635H196.754V0.776367H200.393Z" fill="black"/>
<path d="M181.05 0.776367V7.83281H189.045V0.776367H192.703V18.1635H189.063V10.9495H181.05V18.1635H177.41V0.776367H181.05Z" fill="black"/>
<path fill-rule="evenodd" clip-rule="evenodd" d="M103.851 0.479492C100.839 0.479492 98.4004 2.86082 98.4004 5.80245C98.4004 8.74409 100.839 11.1254 103.851 11.1254C106.862 11.1254 109.301 8.74409 109.301 5.80245C109.283 2.86082 106.844 0.479492 103.851 0.479492ZM103.85 7.97374C102.613 7.97374 101.609 6.9932 101.609 5.78502C101.609 4.57684 102.613 3.5963 103.85 3.5963C105.087 3.5963 106.091 4.57685 106.091 5.78502C106.074 6.9932 105.07 7.97374 103.85 7.97374Z" fill="black"/>
<path fill-rule="evenodd" clip-rule="evenodd" d="M143.364 18.1635H147.218L141.159 0.776367H139.186H137.537H135.565L129.434 18.1635H133.288L134.489 14.5915H142.163L143.364 18.1635ZM135.529 11.5449L138.344 3.22776L141.141 11.5449H135.529Z" fill="black"/>
<path fill-rule="evenodd" clip-rule="evenodd" d="M7.03997 0C5.57055 0 3.82835 1.376 2.39131 3.68933C0.893524 6.08514 0 9.05111 0 11.6268C0 15.3974 2.17246 19.2 7.04038 19.2C11.9025 19.2 14.0808 15.3974 14.0808 11.6268C14.0808 9.05111 13.1876 6.08514 11.6971 3.68933C10.2466 1.376 8.50457 0 7.03997 0ZM45.0562 5.65723H49.9845V18.1718H55.2647V5.65723H60.191V1.02804H45.0562V5.65723ZM71.4556 5.65723H79.2V1.02804H71.4556C64.3408 1.02804 60.541 4.47363 60.541 9.59931C60.541 14.725 64.3408 18.1718 71.4556 18.1718H79.2V13.5428H71.4556C68.1627 13.5428 65.9983 12.3964 65.9983 9.5999C65.9983 6.80342 68.1627 5.65723 71.4556 5.65723ZM34.3166 1.02804L31.5025 11.2604L28.6883 1.02804H19.3608V18.1718H24.6391V4.22755L28.4751 18.1718H34.5298L38.3678 4.21912V18.1718H43.6481V1.02804H34.3166Z" fill="#E30613"/>
<path fill-rule="evenodd" clip-rule="evenodd" d="M95.1771 6.29038L93.48 4.59332L90.0859 7.98747L86.6918 4.59336L84.9947 6.29042L88.3888 9.68452L84.9948 13.0786L86.6918 14.7757L90.0859 11.3816L93.48 14.7757L95.1771 13.0786L91.783 9.68452L95.1771 6.29038Z" fill="black"/>
</svg>
