<svg width="253" height="253" viewBox="0 0 253 253" fill="none" xmlns="http://www.w3.org/2000/svg">
<path d="M205.83 178.9C206.527 175.11 206.882 171.264 206.89 167.41C206.9 153.299 202.184 139.591 193.494 128.473C184.804 117.356 172.64 109.469 158.944 106.071C145.248 102.674 130.809 103.961 117.93 109.729C105.052 115.496 94.4756 125.41 87.8896 137.89C85.4633 137.522 83.0137 137.328 80.5596 137.31C67.0522 137.31 54.0979 142.676 44.5467 152.227C34.9955 161.778 29.6296 174.733 29.6296 188.24C29.6296 201.748 34.9955 214.702 44.5467 224.253C54.0979 233.804 67.0522 239.17 80.5596 239.17H192C199.182 239.173 206.153 236.737 211.771 232.261C217.389 227.785 221.32 221.534 222.922 214.533C224.524 207.531 223.702 200.193 220.589 193.719C217.477 187.246 212.259 182.021 205.79 178.9H205.83Z" fill="#F5F5F5"/>
<path d="M25.7996 40.43C24.7778 34.9866 25.744 29.3573 28.5225 24.5662C31.301 19.775 35.707 16.1405 40.9391 14.3238C46.1711 12.5071 51.8815 12.629 57.0313 14.6673C62.1811 16.7055 66.428 20.5247 68.9996 25.43C69.886 25.2902 70.7821 25.22 71.6796 25.22C74.1644 25.1625 76.6357 25.6022 78.9481 26.5133C81.2606 27.4245 83.3676 28.7886 85.1454 30.5257C86.9231 32.2627 88.3357 34.3376 89.3001 36.6284C90.2646 38.9191 90.7614 41.3795 90.7614 43.865C90.7614 46.3505 90.2646 48.811 89.3001 51.1017C88.3357 53.3925 86.9231 55.4673 85.1454 57.2044C83.3676 58.9414 81.2606 60.3056 78.9481 61.2167C76.6357 62.1279 74.1644 62.5676 71.6796 62.51H30.8496C28.2146 62.5175 25.6555 61.6285 23.5928 59.989C21.53 58.3496 20.0863 56.0572 19.4988 53.4886C18.9113 50.92 19.2151 48.228 20.3601 45.8548C21.5051 43.4817 23.4233 41.5687 25.7996 40.43Z" fill="#F5F5F5"/>
<path d="M235.46 77.47C236.086 74.0367 235.463 70.4928 233.704 67.4787C231.944 64.4646 229.165 62.1791 225.868 61.0354C222.571 59.8917 218.973 59.9651 215.726 61.2424C212.478 62.5197 209.794 64.9167 208.16 68C205.747 67.652 203.287 68.0607 201.116 69.1698C198.946 70.2789 197.173 72.0338 196.042 74.1927C194.911 76.3516 194.478 78.8081 194.802 81.2237C195.125 83.6393 196.19 85.8951 197.85 87.68C198.956 88.8615 200.289 89.8072 201.77 90.46C203.252 91.1109 204.851 91.4512 206.47 91.46H232.27C233.951 91.4837 235.589 90.9295 236.91 89.8901C238.232 88.8508 239.156 87.3893 239.53 85.75C239.91 84.1097 239.709 82.3881 238.96 80.88C238.218 79.3737 236.983 78.1668 235.46 77.46V77.47Z" fill="#F5F5F5"/>
<path d="M107.54 62.1C105.676 62.9578 103.602 63.2484 101.575 62.9354C99.5477 62.6225 97.6574 61.7198 96.1397 60.34C95.1241 59.4586 93.8724 58.8941 92.5395 58.7164C91.2066 58.5387 89.8508 58.7555 88.6397 59.34L72.5597 66.73C69.9156 67.9505 67.8634 70.1696 66.853 72.9009C65.8426 75.6321 65.9565 78.6526 67.1697 81.3L130.35 218.49C131.572 221.13 133.79 223.178 136.519 224.186C139.248 225.194 142.265 225.081 144.91 223.87L161 216.47C162.23 215.923 163.275 215.029 164.005 213.898C164.735 212.766 165.119 211.447 165.11 210.1C165.056 208.055 165.604 206.038 166.686 204.302C167.768 202.565 169.337 201.185 171.197 200.333C173.057 199.481 175.127 199.194 177.149 199.508C179.171 199.822 181.056 200.723 182.57 202.1C183.585 202.981 184.837 203.546 186.17 203.724C187.503 203.901 188.859 203.685 190.07 203.1L206.15 195.69C208.794 194.47 210.846 192.25 211.856 189.519C212.867 186.788 212.753 183.767 211.54 181.12L148.36 43.91C147.137 41.2702 144.919 39.2221 142.19 38.2139C139.462 37.2056 136.445 37.3193 133.8 38.53L117.71 45.93C116.479 46.4768 115.435 47.3707 114.705 48.5021C113.975 49.6336 113.591 50.9535 113.6 52.3C113.665 54.3484 113.125 56.3707 112.047 58.1138C110.97 59.8569 109.402 61.2435 107.54 62.1Z" fill="white"/>
<path d="M140.34 226.38C137.955 226.375 135.62 225.689 133.612 224.403C131.603 223.117 130.003 221.284 129 219.12L65.8097 81.92C65.1239 80.4316 64.7382 78.8227 64.6747 77.1851C64.6111 75.5476 64.871 73.9135 65.4393 72.3765C66.0077 70.8394 66.8735 69.4295 67.9872 68.2273C69.1008 67.025 70.4406 66.0541 71.9297 65.37L87.9997 58C89.4791 57.2887 91.1355 57.0298 92.7614 57.2557C94.3873 57.4816 95.9103 58.1823 97.1397 59.27C98.4386 60.451 100.056 61.2234 101.791 61.491C103.526 61.7586 105.302 61.5094 106.896 60.7747C108.49 60.0399 109.833 58.852 110.756 57.3592C111.68 55.8664 112.144 54.1346 112.09 52.38C112.067 50.7368 112.529 49.1234 113.419 47.7415C114.308 46.3595 115.585 45.2703 117.09 44.61L133.18 37.21C136.187 35.8294 139.618 35.6972 142.722 36.8426C145.827 37.9879 148.35 40.3172 149.74 43.32L212.91 180.52C214.264 183.521 214.38 186.934 213.232 190.02C212.084 193.106 209.766 195.614 206.78 197L190.7 204.4C189.22 205.111 187.564 205.37 185.938 205.144C184.312 204.918 182.789 204.218 181.56 203.13C180.261 201.949 178.643 201.177 176.908 200.909C175.173 200.641 173.398 200.891 171.804 201.625C170.209 202.36 168.867 203.548 167.943 205.041C167.019 206.534 166.556 208.265 166.61 210.02C166.634 211.663 166.172 213.277 165.282 214.66C164.393 216.042 163.115 217.131 161.61 217.79L145.53 225.19C143.907 225.96 142.136 226.366 140.34 226.38ZM91.6697 60.16C90.8387 60.1611 90.0173 60.3383 89.2597 60.68L73.1797 68.09C72.0481 68.6102 71.0301 69.3485 70.1842 70.2627C69.3383 71.1768 68.681 72.2489 68.25 73.4174C67.819 74.586 67.6227 75.8281 67.6724 77.0726C67.7221 78.3171 68.0169 79.5396 68.5397 80.67L131.71 217.86C132.765 220.142 134.681 221.912 137.039 222.784C139.397 223.656 142.004 223.557 144.29 222.51L160.37 215.1C161.331 214.677 162.148 213.984 162.723 213.105C163.298 212.226 163.606 211.2 163.61 210.15C163.529 207.799 164.145 205.477 165.38 203.475C166.615 201.474 168.414 199.882 170.552 198.9C172.689 197.917 175.069 197.589 177.392 197.956C179.716 198.322 181.879 199.368 183.61 200.96C184.408 201.64 185.387 202.074 186.427 202.209C187.467 202.344 188.524 202.174 189.47 201.72L205.56 194.31C207.842 193.255 209.612 191.338 210.482 188.98C211.352 186.621 211.25 184.014 210.2 181.73L147 44.54C145.947 42.2563 144.031 40.4839 141.672 39.6121C139.313 38.7402 136.705 38.8402 134.42 39.89L118.34 47.3C117.371 47.7269 116.548 48.4276 115.973 49.316C115.397 50.2043 115.094 51.2415 115.1 52.3C115.181 54.6507 114.565 56.9729 113.33 58.9747C112.095 60.9764 110.295 62.5684 108.158 63.5505C106.021 64.5326 103.641 64.8609 101.317 64.4943C98.9939 64.1277 96.8308 63.0825 95.0997 61.49C94.1586 60.6403 92.9376 60.1669 91.6697 60.16Z" fill="black"/>
<path d="M84.1396 105.65C83.7983 105.649 83.4674 105.532 83.2016 105.318C82.9358 105.104 82.7509 104.806 82.6775 104.473C82.604 104.139 82.6465 103.791 82.7978 103.485C82.949 103.179 83.2001 102.934 83.5096 102.79L88.9996 100.28C89.3508 100.168 89.731 100.189 90.0677 100.339C90.4043 100.49 90.6738 100.759 90.8247 101.095C90.9756 101.431 90.9973 101.812 90.8857 102.163C90.7741 102.514 90.5369 102.812 90.2196 103L84.7696 105.51C84.5714 105.6 84.357 105.647 84.1396 105.65Z" fill="black"/>
<path d="M98.8696 98.87C98.5252 98.8721 98.1906 98.7557 97.9219 98.5402C97.6532 98.3247 97.4669 98.0234 97.3942 97.6868C97.3215 97.3501 97.3668 96.9987 97.5226 96.6916C97.6783 96.3844 97.935 96.1402 98.2496 96L107.53 91.72C107.892 91.5542 108.305 91.5391 108.678 91.6778C109.051 91.8166 109.354 92.098 109.52 92.46C109.685 92.822 109.701 93.2351 109.562 93.6083C109.423 93.9815 109.142 94.2842 108.78 94.45L99.4996 98.73C99.3032 98.8247 99.0876 98.8727 98.8696 98.87ZM117.44 90.32C117.098 90.3194 116.767 90.2024 116.502 89.9883C116.236 89.7743 116.051 89.476 115.977 89.1427C115.904 88.8094 115.947 88.461 116.098 88.1551C116.249 87.8492 116.5 87.604 116.81 87.46L126.09 83.19C126.447 83.0411 126.849 83.0365 127.21 83.1771C127.571 83.3177 127.864 83.5927 128.027 83.9444C128.19 84.296 128.21 84.6971 128.084 85.0636C127.958 85.43 127.695 85.7333 127.35 85.91L118.06 90.18C117.867 90.2746 117.654 90.3226 117.44 90.32ZM136 81.77C135.658 81.7694 135.327 81.6524 135.062 81.4383C134.796 81.2243 134.611 80.926 134.537 80.5927C134.464 80.2594 134.507 79.911 134.658 79.6051C134.809 79.2992 135.06 79.054 135.37 78.91L144.66 74.64C144.84 74.5421 145.039 74.4824 145.243 74.4645C145.448 74.4465 145.654 74.4707 145.849 74.5356C146.043 74.6005 146.223 74.7047 146.376 74.8418C146.529 74.9788 146.652 75.1458 146.737 75.3323C146.823 75.5189 146.87 75.7211 146.874 75.9263C146.879 76.1316 146.841 76.3356 146.763 76.5257C146.686 76.7157 146.57 76.8879 146.423 77.0314C146.276 77.1749 146.101 77.2867 145.91 77.36L136.63 81.64C136.431 81.7261 136.216 81.7703 136 81.77Z" fill="black"/>
<path d="M154.57 73.23C154.224 73.2345 153.888 73.1197 153.618 72.9051C153.347 72.6904 153.159 72.389 153.085 72.0517C153.011 71.7145 153.055 71.362 153.211 71.0538C153.367 70.7456 153.624 70.5005 153.94 70.36L159.39 67.85C159.753 67.6835 160.168 67.6679 160.542 67.8066C160.917 67.9453 161.222 68.227 161.39 68.59C161.475 68.7695 161.523 68.9643 161.532 69.1628C161.541 69.3613 161.51 69.5595 161.441 69.7459C161.372 69.9322 161.266 70.1029 161.13 70.2479C160.995 70.3929 160.831 70.5092 160.65 70.59L155.2 73.1C155.001 73.1881 154.786 73.2324 154.57 73.23Z" fill="black"/>
<path d="M81.8297 52.7C79.9665 53.5579 77.8921 53.8484 75.8649 53.5354C73.8377 53.2225 71.9475 52.3198 70.4297 50.94C69.4141 50.0586 68.1625 49.4941 66.8295 49.3164C65.4966 49.1387 64.1408 49.3555 62.9297 49.94L46.8497 57.33C44.2057 58.5505 42.1534 60.7696 41.143 63.5009C40.1326 66.2321 40.2465 69.2526 41.4597 71.9L104.64 209.09C105.862 211.73 108.08 213.778 110.809 214.786C113.538 215.794 116.555 215.681 119.2 214.47L135.29 207.07C136.52 206.523 137.565 205.629 138.295 204.498C139.025 203.366 139.409 202.047 139.4 200.7C139.346 198.655 139.894 196.638 140.976 194.902C142.058 193.165 143.627 191.785 145.487 190.933C147.348 190.081 149.417 189.794 151.439 190.108C153.461 190.422 155.346 191.323 156.86 192.7C157.875 193.581 159.127 194.146 160.46 194.324C161.793 194.501 163.149 194.285 164.36 193.7L180.44 186.29C183.084 185.07 185.136 182.85 186.146 180.119C187.157 177.388 187.043 174.367 185.83 171.72L122.65 34.51C121.427 31.8702 119.209 29.8222 116.481 28.8139C113.752 27.8056 110.735 27.9193 108.09 29.13L91.9997 36.53C90.7692 37.0768 89.7249 37.9707 88.9949 39.1021C88.2648 40.2336 87.8808 41.5535 87.8897 42.9C87.9553 44.9484 87.4154 46.9707 86.3375 48.7138C85.2596 50.457 83.6917 51.8435 81.8297 52.7Z" fill="white"/>
<path d="M114.63 217C112.241 216.999 109.903 216.314 107.89 215.028C105.877 213.742 104.274 211.907 103.27 209.74L40.0996 72.52C38.724 69.5173 38.5958 66.0915 39.7432 62.9943C40.8905 59.8972 43.2197 57.3818 46.2196 56L62.2996 48.56C63.7784 47.8461 65.4354 47.5857 67.0618 47.8117C68.6883 48.0377 70.2115 48.74 71.4396 49.83C72.7382 51.0126 74.3564 51.7865 76.0922 52.055C77.8279 52.3236 79.6043 52.0749 81.1996 51.34C82.7973 50.6086 84.1427 49.4206 85.0663 47.9257C85.9899 46.4309 86.4504 44.6961 86.3896 42.94C86.3658 41.2965 86.8275 39.6826 87.717 38.3004C88.6064 36.9182 89.884 35.8292 91.3896 35.17L107.47 27.77C110.473 26.3988 113.897 26.2717 116.995 27.4164C120.092 28.5612 122.61 30.8848 124 33.88L187.17 171.08C188.549 174.087 188.68 177.518 187.532 180.621C186.385 183.723 184.053 186.244 181.05 187.63L165 195C163.52 195.711 161.864 195.97 160.238 195.744C158.612 195.518 157.089 194.818 155.86 193.73C154.561 192.549 152.943 191.777 151.208 191.509C149.473 191.241 147.698 191.491 146.103 192.225C144.509 192.96 143.166 194.148 142.243 195.641C141.319 197.134 140.856 198.865 140.91 200.62C140.933 202.263 140.472 203.877 139.582 205.26C138.693 206.642 137.415 207.731 135.91 208.39L119.83 215.79C118.206 216.569 116.431 216.982 114.63 217ZM65.9996 50.76C65.1717 50.76 64.3533 50.9373 63.5996 51.28L47.4696 58.69C46.3379 59.2102 45.32 59.9485 44.4741 60.8626C43.6282 61.7768 42.9709 62.8489 42.5399 64.0174C42.1089 65.186 41.9126 66.4281 41.9623 67.6726C42.012 68.9171 42.3068 70.1395 42.8296 71.27L106 208.46C107.055 210.742 108.971 212.512 111.329 213.384C113.687 214.256 116.294 214.157 118.58 213.11L134.66 205.7C135.62 205.277 136.438 204.584 137.013 203.705C137.588 202.826 137.896 201.8 137.9 200.75C137.819 198.399 138.435 196.077 139.67 194.075C140.905 192.074 142.704 190.482 144.841 189.5C146.979 188.517 149.359 188.189 151.682 188.556C154.005 188.922 156.169 189.968 157.9 191.56C158.698 192.24 159.677 192.674 160.717 192.809C161.757 192.944 162.814 192.774 163.76 192.32L179.85 184.91C182.132 183.855 183.902 181.938 184.772 179.58C185.642 177.221 185.54 174.614 184.49 172.33L121.29 35.14C120.237 32.8563 118.32 31.0839 115.962 30.2121C113.603 29.3402 110.995 29.4402 108.71 30.49L92.6296 37.9C91.661 38.3269 90.8383 39.0276 90.2626 39.9159C89.687 40.8043 89.3835 41.8415 89.3896 42.9C89.4705 45.2507 88.8546 47.5729 87.6195 49.5747C86.3844 51.5764 84.5851 53.1684 82.4478 54.1505C80.3105 55.1326 77.9306 55.4609 75.6072 55.0943C73.2838 54.7277 71.1207 53.6825 69.3896 52.09C68.4598 51.2478 67.2541 50.7748 65.9996 50.76Z" fill="black"/>
<path d="M53.1195 98.7C52.7783 98.6994 52.4474 98.5824 52.1816 98.3683C51.9157 98.1543 51.7309 97.856 51.6574 97.5227C51.584 97.1894 51.6265 96.841 51.7777 96.5351C51.929 96.2292 52.1801 95.984 52.4896 95.84L57.9395 93.33C58.12 93.2322 58.3187 93.1724 58.5232 93.1545C58.7278 93.1365 58.9338 93.1607 59.1286 93.2256C59.3234 93.2905 59.5027 93.3947 59.6556 93.5318C59.8085 93.6688 59.9316 93.8358 60.0173 94.0224C60.1031 94.2089 60.1496 94.4111 60.154 94.6163C60.1585 94.8216 60.1207 95.0256 60.0431 95.2157C59.9655 95.4057 59.8497 95.5779 59.7029 95.7214C59.5561 95.8649 59.3813 95.9768 59.1895 96.05L53.7396 98.56C53.5467 98.6546 53.3343 98.7026 53.1195 98.7Z" fill="black"/>
<path d="M68.4797 91.63C68.1399 91.6242 67.812 91.504 67.549 91.2888C67.286 91.0735 67.1033 90.7759 67.0305 90.444C66.9576 90.112 66.9988 89.7652 67.1475 89.4596C67.2962 89.1541 67.5436 88.9075 67.8497 88.76L77.7597 84.2C77.9407 84.0982 78.1408 84.0352 78.3475 84.0148C78.5541 83.9944 78.7628 84.0171 78.9602 84.0815C79.1576 84.1459 79.3394 84.2507 79.4943 84.389C79.6491 84.5274 79.7735 84.6964 79.8596 84.8853C79.9458 85.0742 79.9917 85.279 79.9946 85.4866C79.9975 85.6943 79.9573 85.9002 79.8764 86.0915C79.7956 86.2827 79.6759 86.4551 79.525 86.5977C79.3741 86.7404 79.1952 86.8501 78.9997 86.92L69.0897 91.49C68.8975 91.5763 68.6903 91.6239 68.4797 91.63ZM88.3097 82.5C87.9644 82.5045 87.6282 82.3897 87.3577 82.175C87.0873 81.9604 86.8991 81.659 86.8251 81.3217C86.7511 80.9845 86.7957 80.632 86.9514 80.3238C87.107 80.0156 87.3643 79.7705 87.6797 79.63L97.5897 75.07C97.7694 74.9779 97.966 74.9231 98.1674 74.9089C98.3689 74.8946 98.5711 74.9212 98.7621 74.987C98.953 75.0528 99.1287 75.1564 99.2786 75.2918C99.4285 75.4271 99.5495 75.5914 99.6344 75.7746C99.7193 75.9579 99.7663 76.1564 99.7726 76.3583C99.7789 76.5601 99.7444 76.7612 99.6711 76.9494C99.5979 77.1376 99.4873 77.309 99.3462 77.4535C99.205 77.5979 99.0361 77.7124 98.8497 77.79L88.9297 82.36C88.7353 82.4501 88.5239 82.4978 88.3097 82.5ZM108.13 73.37C107.785 73.3721 107.451 73.2557 107.182 73.0402C106.913 72.8247 106.727 72.5234 106.654 72.1868C106.582 71.8501 106.627 71.4987 106.783 71.1916C106.938 70.8844 107.195 70.6402 107.51 70.5L117.42 65.94C117.6 65.8421 117.799 65.7824 118.003 65.7644C118.208 65.7465 118.414 65.7707 118.609 65.8356C118.803 65.9005 118.983 66.0047 119.136 66.1418C119.289 66.2788 119.412 66.4458 119.497 66.6323C119.583 66.8189 119.63 67.0211 119.634 67.2263C119.639 67.4316 119.601 67.6356 119.523 67.8257C119.446 68.0157 119.33 68.1879 119.183 68.3314C119.036 68.4749 118.861 68.5867 118.67 68.66L108.76 73.23C108.562 73.3201 108.347 73.3677 108.13 73.37Z" fill="black"/>
<path d="M128 64.24C127.658 64.2394 127.328 64.1224 127.062 63.9083C126.796 63.6943 126.611 63.396 126.538 63.0627C126.464 62.7294 126.507 62.381 126.658 62.0751C126.809 61.7692 127.06 61.524 127.37 61.38L132.82 58.87C133.166 58.7792 133.534 58.8154 133.856 58.9721C134.178 59.1287 134.433 59.3954 134.576 59.724C134.719 60.0526 134.739 60.4214 134.633 60.7636C134.527 61.1059 134.303 61.399 134 61.59L128.55 64.1C128.376 64.1791 128.19 64.2265 128 64.24Z" fill="black"/>
<path d="M132.41 163.24C137.604 160.849 141.972 156.971 144.962 152.097C147.952 147.224 149.43 141.573 149.208 135.859C148.987 130.145 147.076 124.626 143.717 119.998C140.359 115.371 135.703 111.843 130.34 109.861C124.976 107.879 119.146 107.533 113.585 108.865C108.024 110.197 102.984 113.148 99.1004 117.345C95.217 121.542 92.6653 126.796 91.7681 132.443C90.8708 138.09 91.6683 143.876 94.0597 149.07C97.2662 156.034 103.108 161.44 110.3 164.097C117.492 166.755 125.445 166.446 132.41 163.24Z" fill="white"/>
<path d="M120.33 166.9C116.801 166.876 113.305 166.233 110 165C103.011 162.409 97.2455 157.296 93.8381 150.668C90.4306 144.039 89.6281 136.375 91.5885 129.184C93.5488 121.993 98.1301 115.797 104.43 111.815C110.73 107.832 118.293 106.353 125.63 107.668C132.966 108.982 139.544 112.996 144.07 118.918C148.595 124.84 150.74 132.241 150.081 139.665C149.423 147.089 146.009 153.998 140.512 159.031C135.015 164.064 127.833 166.857 120.38 166.86L120.33 166.9ZM120.33 109.05C113.33 109.032 106.578 111.635 101.403 116.348C96.2284 121.06 93.006 127.54 92.3711 134.51C91.7362 141.48 93.7348 148.436 97.9732 154.005C102.212 159.575 108.382 163.356 115.269 164.602C122.157 165.849 129.261 164.471 135.183 160.739C141.104 157.008 145.414 151.194 147.262 144.444C149.11 137.693 148.363 130.495 145.168 124.268C141.973 118.04 136.561 113.236 130 110.8C126.897 109.642 123.611 109.05 120.3 109.05H120.33Z" fill="#F2F3F4"/>
<path d="M117.68 154.07L114.89 143.65L104.73 140L113.73 134.13L114.02 123.35L122.4 130.14L132.74 127.08L128.88 137.15L134.98 146.04L124.21 145.48L117.68 154.07ZM110.34 139.38L116.96 141.73L118.78 148.53L123.07 142.95L130.07 143.32L126.07 137.52L128.59 130.96L121.85 132.96L116.38 128.53L116.19 135.53L110.34 139.38Z" fill="#00ADEF"/>
</svg>