<svg width="25" height="25" viewBox="0 0 25 25" fill="none" xmlns="http://www.w3.org/2000/svg">
<path d="M2.5 16.5V5.5C2.5 3.8 3.9 2.5 5.5 2.5H16.5C18.2 2.5 19.5 3.9 19.5 5.5V14.6H21.5V5.5C21.5 2.7 19.2 0.5 16.5 0.5H5.5C2.7 0.5 0.5 2.8 0.5 5.5V16.5C0.5 19.3 2.8 21.5 5.5 21.5H14.6V19.5H5.5C3.9 19.6 2.5 18.2 2.5 16.5Z" fill="#00ADEF"/>
<path d="M17 5.79999H5.30005V7.79999H17V5.79999Z" fill="#00ADEF"/>
<path d="M17 10H5.30005V12H17V10Z" fill="#00ADEF"/>
<path d="M17 14.2H5.30005V16.2H17V14.2Z" fill="#00ADEF"/>
<path d="M24.4001 19.6H21.6V16.8H19.6V19.6H16.8V21.6H19.6V24.3H21.6V21.6H24.4001V19.6Z" fill="#00ADEF"/>
</svg>
