<svg width="23" height="24" viewBox="0 0 23 24" fill="none" xmlns="http://www.w3.org/2000/svg">
<path fill-rule="evenodd" clip-rule="evenodd" d="M4.46897 1.38762C5.86353 0.721468 7.43019 0.503643 8.95358 0.764086C10.477 1.02453 11.8823 1.75045 12.9763 2.84206L12.27 3.54996L12.9832 2.84899C13.9175 3.79961 14.5804 4.9829 14.9032 6.27612C15.1768 7.37196 15.1976 8.51291 14.9676 9.61337L21.5688 16.2145C22.3409 16.9904 22.7744 18.0404 22.7744 19.135C22.7744 20.2293 22.3411 21.2791 21.5693 22.0549C21.1854 22.4411 20.729 22.7476 20.2263 22.9567C19.7236 23.1658 19.1845 23.2735 18.64 23.2735C18.0955 23.2735 17.5564 23.1658 17.0537 22.9567C16.5515 22.7478 16.0955 22.4417 15.7119 22.0561C15.7115 22.0557 15.7111 22.0553 15.7107 22.0549L9.10422 15.4484C7.90302 15.6758 6.66106 15.605 5.48853 15.2381C4.12626 14.8117 2.91491 14.0035 1.99823 12.9093C1.08155 11.8151 0.498034 10.4809 0.316929 9.06506C0.135824 7.64918 0.364736 6.21106 0.976497 4.92138C1.11583 4.62765 1.38925 4.41998 1.7096 4.36458C2.02994 4.30918 2.35723 4.41297 2.58711 4.64285L6.4639 8.51964L7.69996 8.11832L8.0848 6.88897L4.19289 2.99706C3.96335 2.76752 3.85951 2.44084 3.9144 2.12089C3.96928 1.80094 4.17605 1.52754 4.46897 1.38762ZM20.1512 20.6445C20.5503 20.2435 20.7744 19.7007 20.7744 19.135C20.7744 18.5696 20.5507 18.0272 20.1521 17.6263C20.1518 17.626 20.1515 17.6257 20.1512 17.6254L13.1529 10.6271C12.8938 10.3679 12.7971 9.9878 12.9011 9.63637C13.1778 8.70041 13.1991 7.70744 12.9628 6.76047C12.7268 5.81507 12.2426 4.94989 11.5602 4.25438C10.7592 3.45658 9.73099 2.92601 8.61654 2.73548C7.99888 2.62989 7.37152 2.63161 6.76118 2.73692L9.92711 5.90285C10.1903 6.16601 10.2855 6.55354 10.1743 6.9087L9.45433 9.2087C9.35754 9.51789 9.11696 9.76103 8.80881 9.86108L6.49881 10.6111C6.14122 10.7272 5.74874 10.6329 5.4829 10.3671L2.33177 7.21594C2.24381 7.74069 2.23257 8.27816 2.30077 8.81131C2.43332 9.8476 2.8604 10.8241 3.53132 11.6249C4.20224 12.4258 5.08883 13.0173 6.08588 13.3293C7.08292 13.6414 8.14856 13.6608 9.15632 13.3853C9.50268 13.2907 9.87321 13.389 10.1271 13.6428L17.1293 20.645C17.3272 20.8442 17.5626 21.0022 17.8219 21.1101C18.0812 21.218 18.3592 21.2735 18.64 21.2735C18.9208 21.2735 19.1988 21.218 19.4581 21.1101C19.7174 21.0022 19.9533 20.8437 20.1512 20.6445Z" fill="#888888"/>
</svg>
