<svg width="345" height="160" viewBox="0 0 345 160" fill="none" xmlns="http://www.w3.org/2000/svg">
<path d="M124.71 105.8H88.4801C88.0984 105.799 87.7202 105.873 87.3672 106.018C87.0142 106.163 86.6933 106.376 86.423 106.646C86.1526 106.915 85.9381 107.235 85.7918 107.588C85.6454 107.94 85.5701 108.318 85.5701 108.7V115.6C85.5701 116.372 85.8767 117.112 86.4224 117.658C86.9681 118.203 87.7083 118.51 88.4801 118.51H124.71C125.092 118.51 125.47 118.435 125.822 118.288C126.175 118.142 126.495 117.927 126.764 117.657C127.034 117.387 127.247 117.066 127.392 116.713C127.537 116.36 127.611 115.982 127.61 115.6V108.7C127.61 107.931 127.305 107.193 126.761 106.649C126.217 106.106 125.479 105.8 124.71 105.8Z" fill="#F5F5F5"/>
<path d="M71.64 105.8H35.4C34.6309 105.8 33.8933 106.106 33.3494 106.649C32.8056 107.193 32.5 107.931 32.5 108.7V115.6C32.4987 115.982 32.5727 116.36 32.7179 116.713C32.863 117.066 33.0764 117.387 33.3459 117.657C33.6153 117.927 33.9354 118.142 34.2879 118.288C34.6404 118.435 35.0183 118.51 35.4 118.51H71.64C72.0217 118.51 72.3996 118.435 72.7521 118.288C73.1046 118.142 73.4248 117.927 73.6942 117.657C73.9636 117.387 74.177 117.066 74.3221 116.713C74.4673 116.36 74.5413 115.982 74.54 115.6V108.7C74.54 108.319 74.465 107.942 74.3193 107.59C74.1735 107.238 73.9599 106.919 73.6906 106.649C73.4213 106.38 73.1016 106.167 72.7498 106.021C72.398 105.875 72.0209 105.8 71.64 105.8Z" fill="#F5F5F5"/>
<path d="M177.78 105.8H141.55C140.781 105.8 140.043 106.106 139.499 106.649C138.956 107.193 138.65 107.931 138.65 108.7V115.6C138.649 115.982 138.723 116.36 138.868 116.713C139.013 117.066 139.226 117.387 139.496 117.657C139.765 117.927 140.085 118.142 140.438 118.288C140.79 118.435 141.168 118.51 141.55 118.51H177.78C178.552 118.51 179.292 118.203 179.838 117.658C180.383 117.112 180.69 116.372 180.69 115.6V108.7C180.69 108.318 180.615 107.94 180.468 107.588C180.322 107.235 180.107 106.915 179.837 106.646C179.567 106.376 179.246 106.163 178.893 106.018C178.54 105.873 178.162 105.799 177.78 105.8Z" fill="#F5F5F5"/>
<path d="M230.86 105.8H194.62C193.851 105.8 193.113 106.106 192.569 106.649C192.026 107.193 191.72 107.931 191.72 108.7V115.6C191.719 115.982 191.793 116.36 191.938 116.713C192.083 117.066 192.296 117.387 192.566 117.657C192.835 117.927 193.155 118.142 193.508 118.288C193.86 118.435 194.238 118.51 194.62 118.51H230.86C231.242 118.51 231.62 118.435 231.972 118.288C232.325 118.142 232.645 117.927 232.914 117.657C233.184 117.387 233.397 117.066 233.542 116.713C233.687 116.36 233.761 115.982 233.76 115.6V108.7C233.76 107.931 233.454 107.193 232.911 106.649C232.367 106.106 231.629 105.8 230.86 105.8Z" fill="#F5F5F5"/>
<path d="M283.94 105.8H247.71C246.941 105.8 246.203 106.106 245.659 106.649C245.116 107.193 244.81 107.931 244.81 108.7V115.6C244.809 115.982 244.883 116.36 245.028 116.713C245.173 117.066 245.387 117.387 245.656 117.657C245.925 117.927 246.245 118.142 246.598 118.288C246.95 118.435 247.328 118.51 247.71 118.51H283.94C284.712 118.51 285.452 118.203 285.998 117.658C286.543 117.112 286.85 116.372 286.85 115.6V108.7C286.85 108.318 286.775 107.94 286.628 107.588C286.482 107.235 286.268 106.915 285.997 106.646C285.727 106.376 285.406 106.163 285.053 106.018C284.7 105.873 284.322 105.799 283.94 105.8Z" fill="#F5F5F5"/>
<path d="M177.78 146.78H141.55C141.168 146.78 140.79 146.855 140.438 147.002C140.085 147.148 139.765 147.363 139.496 147.633C139.226 147.903 139.013 148.224 138.868 148.577C138.723 148.93 138.649 149.308 138.65 149.69V156.59C138.65 157.359 138.956 158.097 139.499 158.641C140.043 159.184 140.781 159.49 141.55 159.49H177.78C178.162 159.491 178.54 159.417 178.893 159.272C179.246 159.127 179.567 158.914 179.837 158.644C180.107 158.375 180.322 158.055 180.468 157.702C180.615 157.35 180.69 156.972 180.69 156.59V149.69C180.69 148.918 180.383 148.178 179.838 147.632C179.292 147.087 178.552 146.78 177.78 146.78Z" fill="#F5F5F5"/>
<path d="M150 84.39H113.75C113.368 84.3887 112.99 84.4628 112.637 84.6079C112.284 84.7531 111.963 84.9665 111.693 85.2359C111.423 85.5053 111.208 85.8254 111.062 86.1779C110.915 86.5304 110.84 86.9084 110.84 87.29V94.19C110.84 94.9618 111.147 95.702 111.692 96.2477C112.238 96.7934 112.978 97.1 113.75 97.1H150C150.77 97.0974 151.508 96.7896 152.051 96.2442C152.595 95.6987 152.9 94.9601 152.9 94.19V87.29C152.9 86.9092 152.825 86.5321 152.679 86.1803C152.533 85.8284 152.32 85.5087 152.051 85.2394C151.781 84.9701 151.462 84.7565 151.11 84.6108C150.758 84.465 150.381 84.39 150 84.39Z" fill="#F5F5F5"/>
<path d="M96.89 84.39H60.66C59.8899 84.39 59.1513 84.6952 58.6058 85.2388C58.0604 85.7824 57.7526 86.52 57.75 87.29V94.19C57.7526 94.961 58.0601 95.6996 58.6052 96.2448C59.1504 96.79 59.889 97.0974 60.66 97.1H96.89C97.6618 97.1 98.4019 96.7934 98.9477 96.2477C99.4934 95.702 99.8 94.9618 99.8 94.19V87.29C99.8 86.9084 99.7247 86.5304 99.5783 86.1779C99.4319 85.8254 99.2174 85.5053 98.9471 85.2359C98.6767 84.9665 98.3559 84.7531 98.0029 84.6079C97.6499 84.4628 97.2717 84.3887 96.89 84.39Z" fill="#F5F5F5"/>
<path d="M203.05 84.3901H166.82C166.438 84.3888 166.06 84.4628 165.707 84.608C165.354 84.7531 165.033 84.9665 164.763 85.2359C164.493 85.5053 164.278 85.8255 164.132 86.178C163.985 86.5305 163.91 86.9084 163.91 87.2901V94.1901C163.91 94.9619 164.217 95.702 164.762 96.2478C165.308 96.7935 166.048 97.1001 166.82 97.1001H203.05C203.436 97.1054 203.818 97.034 204.176 96.8902C204.534 96.7463 204.859 96.5328 205.134 96.262C205.408 95.9913 205.626 95.6687 205.775 95.313C205.923 94.9573 206 94.5756 206 94.1901V87.2901C206 86.905 205.923 86.5238 205.775 86.1686C205.626 85.8135 205.408 85.4915 205.133 85.2216C204.858 84.9516 204.533 84.7391 204.175 84.5963C203.818 84.4535 203.435 84.3834 203.05 84.3901Z" fill="#F5F5F5"/>
<path d="M256.12 84.39H219.89C219.509 84.39 219.132 84.465 218.78 84.6108C218.428 84.7565 218.109 84.9701 217.839 85.2394C217.57 85.5087 217.356 85.8284 217.211 86.1802C217.065 86.5321 216.99 86.9092 216.99 87.29V94.19C216.99 94.9601 217.295 95.6987 217.839 96.2442C218.382 96.7896 219.12 97.0974 219.89 97.1H256.12C256.887 97.0921 257.619 96.782 258.158 96.2372C258.698 95.6923 259 94.9566 259 94.19V87.29C259 86.5243 258.697 85.7897 258.158 85.2464C257.618 84.7032 256.886 84.3953 256.12 84.39Z" fill="#F5F5F5"/>
<path d="M309.2 84.39H273C272.618 84.3887 272.24 84.4628 271.887 84.6079C271.534 84.7531 271.213 84.9665 270.943 85.2359C270.673 85.5053 270.458 85.8254 270.312 86.1779C270.165 86.5304 270.09 86.9084 270.09 87.29V94.19C270.09 94.9618 270.397 95.702 270.942 96.2477C271.488 96.7934 272.228 97.1 273 97.1H309.2C309.97 97.0974 310.708 96.7896 311.251 96.2442C311.795 95.6987 312.1 94.9601 312.1 94.19V87.29C312.1 86.5209 311.794 85.7833 311.251 85.2394C310.707 84.6956 309.969 84.39 309.2 84.39Z" fill="#F5F5F5"/>
<path d="M203.05 42.6101H166.82C166.438 42.6087 166.06 42.6828 165.707 42.8279C165.354 42.9731 165.033 43.1865 164.763 43.4559C164.493 43.7253 164.278 44.0455 164.132 44.398C163.985 44.7505 163.91 45.1284 163.91 45.51V52.41C163.91 53.1818 164.217 53.922 164.762 54.4677C165.308 55.0135 166.048 55.32 166.82 55.32H203.05C203.436 55.3253 203.818 55.254 204.176 55.1101C204.534 54.9663 204.859 54.7528 205.134 54.482C205.408 54.2113 205.626 53.8887 205.775 53.533C205.923 53.1773 206 52.7956 206 52.41V45.51C206 45.125 205.923 44.7437 205.775 44.3886C205.626 44.0335 205.408 43.7115 205.133 43.4416C204.858 43.1716 204.533 42.959 204.175 42.8163C203.818 42.6735 203.435 42.6034 203.05 42.6101Z" fill="#F5F5F5"/>
<path d="M150 126H113.75C112.978 126 112.238 126.307 111.692 126.852C111.147 127.398 110.84 128.138 110.84 128.91V135.81C110.84 136.192 110.915 136.57 111.062 136.922C111.208 137.275 111.423 137.595 111.693 137.864C111.963 138.134 112.284 138.347 112.637 138.492C112.99 138.637 113.368 138.711 113.75 138.71H150C150.381 138.71 150.758 138.635 151.11 138.489C151.462 138.344 151.781 138.13 152.051 137.861C152.32 137.591 152.533 137.272 152.679 136.92C152.825 136.568 152.9 136.191 152.9 135.81V128.91C152.9 128.14 152.595 127.401 152.051 126.856C151.508 126.31 150.77 126.003 150 126Z" fill="#F5F5F5"/>
<path d="M203.05 126H166.82C166.048 126 165.308 126.307 164.762 126.852C164.217 127.398 163.91 128.138 163.91 128.91V135.81C163.91 136.192 163.985 136.57 164.132 136.922C164.278 137.275 164.493 137.595 164.763 137.864C165.033 138.134 165.354 138.347 165.707 138.492C166.06 138.637 166.438 138.711 166.82 138.71H203.05C203.432 138.711 203.81 138.637 204.163 138.492C204.516 138.347 204.837 138.134 205.107 137.864C205.377 137.595 205.592 137.275 205.738 136.922C205.885 136.57 205.96 136.192 205.96 135.81V128.91C205.96 128.138 205.653 127.398 205.108 126.852C204.562 126.307 203.822 126 203.05 126Z" fill="#F5F5F5"/>
<path d="M256.12 126H219.89C219.12 126.003 218.382 126.31 217.839 126.856C217.295 127.401 216.99 128.14 216.99 128.91V135.81C216.99 136.579 217.296 137.317 217.839 137.861C218.383 138.404 219.121 138.71 219.89 138.71H256.12C256.502 138.711 256.88 138.637 257.233 138.492C257.586 138.347 257.907 138.134 258.177 137.864C258.447 137.595 258.662 137.275 258.808 136.922C258.955 136.57 259.03 136.192 259.03 135.81V128.91C259.03 128.528 258.955 128.149 258.808 127.796C258.662 127.443 258.448 127.123 258.178 126.852C257.907 126.582 257.587 126.368 257.234 126.222C256.881 126.075 256.502 126 256.12 126Z" fill="#F5F5F5"/>
<path d="M124.71 63.5H88.4801C88.0984 63.4987 87.7202 63.5727 87.3672 63.7179C87.0142 63.863 86.6933 64.0764 86.423 64.3459C86.1526 64.6153 85.9381 64.9354 85.7918 65.2879C85.6454 65.6404 85.5701 66.0183 85.5701 66.4V73.3C85.5701 74.0718 85.8767 74.812 86.4224 75.3577C86.9681 75.9034 87.7083 76.21 88.4801 76.21H124.71C125.48 76.2074 126.218 75.8996 126.761 75.3542C127.305 74.8087 127.61 74.0701 127.61 73.3V66.4C127.61 65.6309 127.305 64.8933 126.761 64.3494C126.217 63.8055 125.479 63.5 124.71 63.5Z" fill="#F5F5F5"/>
<path d="M177.78 63.5H141.55C140.781 63.5 140.043 63.8055 139.499 64.3494C138.956 64.8933 138.65 65.6309 138.65 66.4V73.3C138.65 74.0701 138.955 74.8087 139.499 75.3542C140.042 75.8996 140.78 76.2074 141.55 76.21H177.78C178.552 76.21 179.292 75.9034 179.838 75.3577C180.383 74.812 180.69 74.0718 180.69 73.3V66.4C180.69 66.0183 180.615 65.6404 180.468 65.2879C180.322 64.9354 180.107 64.6153 179.837 64.3459C179.567 64.0764 179.246 63.863 178.893 63.7179C178.54 63.5727 178.162 63.4987 177.78 63.5Z" fill="#F5F5F5"/>
<path d="M230.86 63.5H194.62C193.851 63.5 193.113 63.8055 192.569 64.3494C192.026 64.8932 191.72 65.6309 191.72 66.4V73.3C191.72 74.0701 192.025 74.8087 192.569 75.3542C193.112 75.8996 193.85 76.2074 194.62 76.21H230.86C231.63 76.2074 232.368 75.8996 232.911 75.3542C233.455 74.8087 233.76 74.0701 233.76 73.3V66.4C233.76 65.6309 233.454 64.8932 232.911 64.3494C232.367 63.8055 231.629 63.5 230.86 63.5Z" fill="#F5F5F5"/>
<path d="M268.42 67.8401H76.18C74.9786 67.8401 73.8264 68.3174 72.9768 69.1669C72.1273 70.0164 71.65 71.1687 71.65 72.3701V129.73C71.65 130.932 72.1273 132.084 72.9768 132.933C73.8264 133.783 74.9786 134.26 76.18 134.26H268.42C269.621 134.26 270.774 133.783 271.623 132.933C272.473 132.084 272.95 130.932 272.95 129.73V72.3701C272.95 71.1687 272.473 70.0164 271.623 69.1669C270.774 68.3174 269.621 67.8401 268.42 67.8401Z" fill="white"/>
<path d="M268.42 69.3401H76.1801C75.3844 69.3401 74.6213 69.6562 74.0587 70.2188C73.4961 70.7814 73.1801 71.5444 73.1801 72.3401V129.7C73.1801 130.496 73.4961 131.259 74.0587 131.821C74.6213 132.384 75.3844 132.7 76.1801 132.7H268.42C269.216 132.7 269.979 132.384 270.541 131.821C271.104 131.259 271.42 130.496 271.42 129.7V72.3701C271.424 71.9736 271.349 71.5803 271.2 71.2128C271.051 70.8454 270.831 70.5111 270.552 70.2294C270.273 69.9476 269.941 69.7239 269.575 69.5713C269.209 69.4187 268.817 69.3401 268.42 69.3401V69.3401Z" stroke="#231F20" stroke-width="3" stroke-linejoin="round"/>
<path d="M221.41 124.31H99.62" stroke="black" stroke-width="2" stroke-miterlimit="10" stroke-linecap="round"/>
<path d="M248.79 124.31H233.18" stroke="black" stroke-width="2" stroke-miterlimit="10" stroke-linecap="round"/>
<path d="M248.79 84.51H236.11" stroke="black" stroke-width="2" stroke-miterlimit="10" stroke-linecap="round"/>
<path d="M225.42 84.51H168.82" stroke="black" stroke-width="2" stroke-miterlimit="10" stroke-linecap="round"/>
<path d="M249.27 131.26V117H95.6901V131.28L249.27 131.26ZM252.27 134.26H92.6901V114H252.27V134.26Z" fill="#231F20"/>
<path d="M172.52 25.14C169.09 30 146.21 40 137.23 40V75.27C137.23 91.85 170.54 109.99 172.5 110.51C174.5 109.99 207.77 90.58 207.77 77.12V40C198 40 176 30 172.52 25.14Z" fill="white"/>
<path d="M172.5 103.48C172.368 103.48 172.236 103.459 172.11 103.42C170.54 103.01 142.78 88.3201 142.78 73.7801V45.5601C142.783 45.163 142.942 44.783 143.222 44.5023C143.503 44.2215 143.883 44.0627 144.28 44.0601C151.04 44.0601 168.92 36.1801 171.28 32.8201C171.418 32.6223 171.603 32.4608 171.817 32.3494C172.031 32.238 172.269 32.1799 172.51 32.1801C172.75 32.1815 172.986 32.2404 173.198 32.3517C173.41 32.4631 173.593 32.6237 173.73 32.8201C176.03 36.0801 193.13 44.0601 200.73 44.0601C201.127 44.0627 201.507 44.2215 201.788 44.5023C202.069 44.783 202.227 45.163 202.23 45.5601V75.2601C202.23 87.2601 174.23 103.08 172.9 103.42C172.771 103.46 172.636 103.481 172.5 103.48ZM145.78 47.0001V73.7801C145.78 84.9001 168.09 98.4101 172.49 100.36C176.35 98.5001 199.22 84.3601 199.22 75.2601V47.0001C191.29 46.2401 177.3 40.0001 172.51 35.8501C167.61 40.0901 153.13 46.1601 145.78 47.0001Z" fill="#00ADEF"/>
<path d="M172.76 95.54L172.24 93.6L172.5 94.6L172.2 93.65C173.9 93 193.78 79.83 193.78 72.32V51.5H195.78V72.29C195.78 81.38 174.43 95.09 172.76 95.54ZM151.22 73.78H149.22V50.5H150.22C155.81 50.5 169.82 44.65 171.69 42.01L173.32 43.17C171.02 46.4 157.71 51.9 151.22 52.46V73.78Z" fill="#231F20"/>
<path d="M169.59 75.97L162.53 68.9L164.65 66.78L169.47 71.59L180.29 59.42L182.53 61.41L169.59 75.97Z" fill="#00ADEF"/>
</svg>
