<svg width="280" height="119" viewBox="0 0 280 119" fill="none" xmlns="http://www.w3.org/2000/svg">
<path d="M92.209 64.7974H55.978C54.3731 64.7974 53.072 66.0984 53.072 67.7034V74.6014C53.072 76.2063 54.3731 77.5074 55.978 77.5074H92.209C93.8139 77.5074 95.115 76.2063 95.115 74.6014V67.7034C95.115 66.0984 93.8139 64.7974 92.209 64.7974Z" fill="#F5F5F5"/>
<path d="M39.136 64.7974H2.90499C1.30005 64.7974 -0.00100708 66.0984 -0.00100708 67.7034V74.6014C-0.00100708 76.2063 1.30005 77.5074 2.90499 77.5074H39.136C40.7409 77.5074 42.042 76.2063 42.042 74.6014V67.7034C42.042 66.0984 40.7409 64.7974 39.136 64.7974Z" fill="#F5F5F5"/>
<path d="M145.283 64.7974H109.052C107.447 64.7974 106.146 66.0984 106.146 67.7034V74.6014C106.146 76.2063 107.447 77.5074 109.052 77.5074H145.283C146.888 77.5074 148.189 76.2063 148.189 74.6014V67.7034C148.189 66.0984 146.888 64.7974 145.283 64.7974Z" fill="#F5F5F5"/>
<path d="M198.356 64.7974H162.125C160.52 64.7974 159.219 66.0984 159.219 67.7034V74.6014C159.219 76.2063 160.52 77.5074 162.125 77.5074H198.356C199.961 77.5074 201.262 76.2063 201.262 74.6014V67.7034C201.262 66.0984 199.961 64.7974 198.356 64.7974Z" fill="#F5F5F5"/>
<path d="M251.443 64.7974H215.212C213.607 64.7974 212.306 66.0984 212.306 67.7034V74.6014C212.306 76.2063 213.607 77.5074 215.212 77.5074H251.443C253.048 77.5074 254.349 76.2063 254.349 74.6014V67.7034C254.349 66.0984 253.048 64.7974 251.443 64.7974Z" fill="#F5F5F5"/>
<path d="M145.283 105.784H109.052C107.447 105.784 106.146 107.085 106.146 108.69V115.588C106.146 117.193 107.447 118.494 109.052 118.494H145.283C146.888 118.494 148.189 117.193 148.189 115.588V108.69C148.189 107.085 146.888 105.784 145.283 105.784Z" fill="#F5F5F5"/>
<path d="M117.478 43.3853H81.247C79.6421 43.3853 78.341 44.6863 78.341 46.2913V53.1893C78.341 54.7942 79.6421 56.0953 81.247 56.0953H117.478C119.083 56.0953 120.384 54.7942 120.384 53.1893V46.2913C120.384 44.6863 119.083 43.3853 117.478 43.3853Z" fill="#F5F5F5"/>
<path d="M64.391 43.3853H28.16C26.5551 43.3853 25.254 44.6863 25.254 46.2913V53.1893C25.254 54.7942 26.5551 56.0953 28.16 56.0953H64.391C65.9959 56.0953 67.297 54.7942 67.297 53.1893V46.2913C67.297 44.6863 65.9959 43.3853 64.391 43.3853Z" fill="#F5F5F5"/>
<path d="M170.551 43.3853H134.32C132.715 43.3853 131.414 44.6863 131.414 46.2913V53.1893C131.414 54.7942 132.715 56.0953 134.32 56.0953H170.551C172.156 56.0953 173.457 54.7942 173.457 53.1893V46.2913C173.457 44.6863 172.156 43.3853 170.551 43.3853Z" fill="#F5F5F5"/>
<path d="M223.624 43.3853H187.393C185.788 43.3853 184.487 44.6863 184.487 46.2913V53.1893C184.487 54.7942 185.788 56.0953 187.393 56.0953H223.624C225.229 56.0953 226.53 54.7942 226.53 53.1893V46.2913C226.53 44.6863 225.229 43.3853 223.624 43.3853Z" fill="#F5F5F5"/>
<path d="M276.698 43.3853H240.467C238.862 43.3853 237.561 44.6863 237.561 46.2913V53.1893C237.561 54.7942 238.862 56.0953 240.467 56.0953H276.698C278.303 56.0953 279.604 54.7942 279.604 53.1893V46.2913C279.604 44.6863 278.303 43.3853 276.698 43.3853Z" fill="#F5F5F5"/>
<path d="M170.551 1.60547H134.32C132.715 1.60547 131.414 2.90653 131.414 4.51147V11.4095C131.414 13.0144 132.715 14.3155 134.32 14.3155H170.551C172.156 14.3155 173.457 13.0144 173.457 11.4095V4.51147C173.457 2.90653 172.156 1.60547 170.551 1.60547Z" fill="#F5F5F5"/>
<path d="M117.478 84.9844H81.247C79.6421 84.9844 78.341 86.2854 78.341 87.8904V94.7884C78.341 96.3933 79.6421 97.6944 81.247 97.6944H117.478C119.083 97.6944 120.384 96.3933 120.384 94.7884V87.8904C120.384 86.2854 119.083 84.9844 117.478 84.9844Z" fill="#F5F5F5"/>
<path d="M170.551 84.9844H134.32C132.715 84.9844 131.414 86.2854 131.414 87.8904V94.7884C131.414 96.3933 132.715 97.6944 134.32 97.6944H170.551C172.156 97.6944 173.457 96.3933 173.457 94.7884V87.8904C173.457 86.2854 172.156 84.9844 170.551 84.9844Z" fill="#F5F5F5"/>
<path d="M223.624 84.9844H187.393C185.788 84.9844 184.487 86.2854 184.487 87.8904V94.7884C184.487 96.3933 185.788 97.6944 187.393 97.6944H223.624C225.229 97.6944 226.53 96.3933 226.53 94.7884V87.8904C226.53 86.2854 225.229 84.9844 223.624 84.9844Z" fill="#F5F5F5"/>
<path d="M92.209 22.4956H55.978C54.3731 22.4956 53.072 23.7967 53.072 25.4016V32.2996C53.072 33.9045 54.3731 35.2056 55.978 35.2056H92.209C93.8139 35.2056 95.115 33.9045 95.115 32.2996V25.4016C95.115 23.7967 93.8139 22.4956 92.209 22.4956Z" fill="#F5F5F5"/>
<path d="M145.283 22.4956H109.052C107.447 22.4956 106.146 23.7967 106.146 25.4016V32.2996C106.146 33.9045 107.447 35.2056 109.052 35.2056H145.283C146.888 35.2056 148.189 33.9045 148.189 32.2996V25.4016C148.189 23.7967 146.888 22.4956 145.283 22.4956Z" fill="#F5F5F5"/>
<path d="M198.356 22.4956H162.125C160.52 22.4956 159.219 23.7967 159.219 25.4016V32.2996C159.219 33.9045 160.52 35.2056 162.125 35.2056H198.356C199.961 35.2056 201.262 33.9045 201.262 32.2996V25.4016C201.262 23.7967 199.961 22.4956 198.356 22.4956Z" fill="#F5F5F5"/>
<path d="M235.917 26.8403H43.685C41.1831 26.8403 39.155 28.8685 39.155 31.3703V88.7283C39.155 91.2302 41.1831 93.2583 43.685 93.2583H235.917C238.419 93.2583 240.447 91.2302 240.447 88.7283V31.3703C240.447 28.8685 238.419 26.8403 235.917 26.8403Z" fill="white"/>
<path d="M235.917 28.3403H43.685C42.0116 28.3403 40.655 29.6969 40.655 31.3703V88.7283C40.655 90.4018 42.0116 91.7583 43.685 91.7583H235.917C237.59 91.7583 238.947 90.4018 238.947 88.7283V31.3703C238.947 29.6969 237.59 28.3403 235.917 28.3403Z" stroke="#231F20" stroke-width="3" stroke-linejoin="round"/>
<path d="M188.906 83.311H67.118" stroke="black" stroke-width="2" stroke-miterlimit="10" stroke-linecap="round"/>
<path d="M216.29 83.311H200.684" stroke="black" stroke-width="2" stroke-miterlimit="10" stroke-linecap="round"/>
<path d="M216.289 43.5132H203.612" stroke="black" stroke-width="2" stroke-miterlimit="10" stroke-linecap="round"/>
<path d="M192.916 43.5132H136.324" stroke="black" stroke-width="2" stroke-miterlimit="10" stroke-linecap="round"/>
<path d="M216.773 90.2574V75.9829H63.1943V83.1201V90.2574H216.773ZM219.773 93.2574H60.1943V83.1201V72.9829H219.773V93.2574Z" fill="#231F20"/>
<path d="M140.674 53.5096C155.008 53.5096 166.628 41.8896 166.628 27.5556C166.628 13.2216 155.008 1.60156 140.674 1.60156C126.34 1.60156 114.72 13.2216 114.72 27.5556C114.72 41.8896 126.34 53.5096 140.674 53.5096Z" fill="white" stroke="#F2F3F4" stroke-width="2"/>
<path d="M146.515 21.5377L145.032 20.0547L138.358 26.7297L139.841 28.2127L146.515 21.5377ZM150.964 20.0547L139.841 31.2837L135.392 26.8297L133.909 28.3127L139.841 34.2447L152.553 21.5327L150.964 20.0547ZM127.871 28.3177L133.803 34.2497L135.286 32.7667L129.354 26.8297L127.871 28.3177Z" fill="#00ADEF"/>
</svg>
