<svg width="21" height="19" viewBox="0 0 21 19" fill="none" xmlns="http://www.w3.org/2000/svg">
<g clip-path="url(#clip0)">
<path d="M20.465 12.681C20.3232 12.6813 20.1873 12.7377 20.087 12.838C19.9867 12.9383 19.9303 13.0742 19.93 13.216V15.26C19.9295 15.827 19.7041 16.3706 19.3033 16.7716C18.9025 17.1726 18.359 17.3982 17.792 17.399H3.208C2.64104 17.3982 2.09754 17.1726 1.69673 16.7716C1.29592 16.3706 1.07053 15.827 1.07 15.26V13.216C1.07 13.0741 1.01363 12.938 0.913302 12.8377C0.81297 12.7374 0.676891 12.681 0.535 12.681C0.393109 12.681 0.25703 12.7374 0.156698 12.8377C0.056366 12.938 0 13.0741 0 13.216V15.26C0.00105848 16.1105 0.339383 16.9258 0.940771 17.5272C1.54216 18.1286 2.35751 18.4669 3.208 18.468H17.793C18.6434 18.4669 19.4586 18.1286 20.0599 17.5272C20.6611 16.9258 20.9992 16.1104 21 15.26V13.216C20.9997 13.0742 20.9433 12.9383 20.843 12.838C20.7427 12.7377 20.6068 12.6813 20.465 12.681Z" fill="#00ADEF"/>
<path d="M15.911 7.727C15.8165 7.62124 15.684 7.55731 15.5424 7.54924C15.4008 7.54118 15.2619 7.58965 15.156 7.684L11.035 11.368V1.003C11.0267 0.866763 10.9667 0.738838 10.8673 0.645317C10.7678 0.551796 10.6365 0.499725 10.5 0.499725C10.3635 0.499725 10.2322 0.551796 10.1327 0.645317C10.0333 0.738838 9.97333 0.866763 9.965 1.003V11.368L5.844 7.684C5.79147 7.63718 5.73024 7.60117 5.66379 7.57802C5.59734 7.55487 5.52699 7.54503 5.45674 7.54907C5.38649 7.55311 5.31773 7.57095 5.25438 7.60156C5.19102 7.63218 5.13432 7.67497 5.0875 7.7275C5.04068 7.78003 5.00467 7.84126 4.98152 7.90771C4.95837 7.97416 4.94853 8.04451 4.95257 8.11476C4.95661 8.18501 4.97445 8.25377 5.00506 8.31712C5.03568 8.38048 5.07847 8.43718 5.131 8.484L9.609 12.484C9.85346 12.7035 10.1704 12.825 10.499 12.825C10.8276 12.825 11.1445 12.7035 11.389 12.484L15.867 8.484C15.9194 8.43738 15.9621 8.3809 15.9927 8.31778C16.0233 8.25466 16.0411 8.18613 16.0452 8.11611C16.0493 8.0461 16.0395 7.97596 16.0165 7.90971C15.9935 7.84346 15.9576 7.78239 15.911 7.73V7.727Z" fill="#00ADEF"/>
</g>
<defs>
<clipPath id="clip0">
<rect width="21" height="17.968" fill="white" transform="translate(0 0.5)"/>
</clipPath>
</defs>
</svg>
