<svg width="8" height="15" viewBox="0 0 8 15" fill="none" xmlns="http://www.w3.org/2000/svg">
<path d="M7.55501 0.397478H5.71001C5.24724 0.371215 4.78421 0.444554 4.3522 0.612543C3.92019 0.780532 3.52925 1.03926 3.20579 1.37126C2.88232 1.70325 2.63385 2.10079 2.47717 2.53703C2.32048 2.97326 2.25921 3.43804 2.29751 3.89998V5.51248H0.445012C0.406945 5.51247 0.369262 5.52008 0.334186 5.53487C0.29911 5.54966 0.267353 5.57132 0.240788 5.59859C0.214222 5.62585 0.193388 5.65816 0.179514 5.69361C0.165641 5.72906 0.159009 5.76693 0.160011 5.80498V8.13748C0.159986 8.21377 0.189772 8.28706 0.243015 8.3417C0.296258 8.39634 0.368743 8.42802 0.445012 8.42998H2.29751V14.325C2.29941 14.402 2.33084 14.4753 2.38529 14.5297C2.43974 14.5841 2.51304 14.6156 2.59001 14.6175H5.00501C5.08259 14.6175 5.15699 14.5867 5.21184 14.5318C5.2667 14.477 5.29751 14.4026 5.29751 14.325V8.42248H7.46501C7.54199 8.42058 7.61529 8.38915 7.66974 8.3347C7.72418 8.28025 7.75561 8.20696 7.75751 8.12998V5.79748C7.75877 5.75802 7.75137 5.71877 7.73582 5.68249C7.72027 5.64621 7.69695 5.61378 7.66751 5.58748C7.61322 5.53483 7.54064 5.50527 7.46501 5.50498H5.29751V4.13998C5.29751 3.47998 5.45501 3.14248 6.31001 3.14248H7.55501C7.6306 3.14248 7.70309 3.11245 7.75654 3.059C7.80999 3.00556 7.84001 2.93306 7.84001 2.85748V0.682478C7.84001 0.606892 7.80999 0.534401 7.75654 0.480953C7.70309 0.427505 7.6306 0.397478 7.55501 0.397478Z" fill="#888888"/>
</svg>
