<svg width="38" height="49" viewBox="0 0 38 49" fill="none" xmlns="http://www.w3.org/2000/svg">
<g clip-path="url(#clip0)">
<path d="M36.7862 10.5858L36.1481 9.94772L27.7895 1.5891L27.1556 0.955172C26.8634 0.664702 26.4685 0.501149 26.0566 0.5H2.03834C1.05683 0.5 0 1.25807 0 2.92152V46.8448C0.058454 47.2335 0.236228 47.5943 0.508733 47.8775C0.781238 48.1607 1.13501 48.3522 1.5211 48.4255C1.56248 48.4363 1.60386 48.452 1.64524 48.4603C1.77466 48.4863 1.90633 48.4997 2.03834 48.5H35.203C35.3351 48.4997 35.4667 48.4864 35.5961 48.4603C35.6392 48.452 35.6789 48.4363 35.7203 48.4255C36.1064 48.3522 36.4601 48.1607 36.7326 47.8775C37.0051 47.5943 37.1829 47.2335 37.2414 46.8448V12.068C37.2738 11.8028 37.25 11.5338 37.1716 11.2784C37.0931 11.0231 36.9618 10.7871 36.7862 10.5858ZM34.291 10.431H27.3103V3.45034L34.291 10.431ZM2.03834 46.8448C1.98118 46.8414 1.92512 46.8276 1.87283 46.8043C1.8078 46.7737 1.75281 46.7252 1.71427 46.6646C1.67573 46.6039 1.65524 46.5335 1.65517 46.4617V34.431H35.5862V46.4617C35.5858 46.5337 35.565 46.6041 35.5262 46.6647C35.4873 46.7254 35.4321 46.7738 35.3669 46.8043C35.3146 46.8276 35.2585 46.8414 35.2014 46.8448H2.03834ZM1.65517 32.7759V2.92152C1.65517 2.74193 1.68248 2.15517 2.03834 2.15517H25.7032C25.6733 2.26052 25.6572 2.36928 25.6552 2.47876V12.0862H35.2626C35.3718 12.0842 35.4803 12.068 35.5854 12.0382V32.7759H1.65517Z" fill="#00ADEF"/>
<path d="M12.8623 37.5295C12.5859 37.3027 12.2692 37.13 11.9288 37.0206C11.5894 36.9085 11.2344 36.8512 10.877 36.8509H8.47696V45.1897H9.83503V42.1797H10.8414C11.2491 42.1847 11.6547 42.1197 12.0405 41.9877C12.383 41.8707 12.6985 41.6861 12.9683 41.4448C13.2296 41.204 13.4345 40.9084 13.5683 40.5792C13.7157 40.2144 13.7889 39.8239 13.7834 39.4305C13.789 39.0547 13.7014 38.6834 13.5285 38.3497C13.3628 38.0343 13.1354 37.7554 12.8599 37.5295H12.8623ZM12.3476 40.2846C12.2807 40.487 12.1673 40.6709 12.0165 40.8217C11.8891 40.9449 11.7367 41.0395 11.5696 41.0989C11.41 41.1543 11.2421 41.1823 11.0731 41.1817H9.83172V37.8804H10.8496C11.138 37.8688 11.4249 37.9256 11.6872 38.0459C11.8826 38.1404 12.0528 38.28 12.1837 38.4531C12.2955 38.6048 12.3744 38.7781 12.4154 38.9621C12.4501 39.1162 12.469 39.2734 12.4717 39.4313C12.4793 39.7213 12.4373 40.0104 12.3476 40.2862V40.2846ZM21.0654 38.0724C20.6911 37.6869 20.24 37.3843 19.7412 37.1844C19.1527 36.9527 18.524 36.8402 17.8916 36.8534H15.3799V45.1897H18.5379C18.7007 45.1852 18.8632 45.172 19.0245 45.1499C19.2719 45.1168 19.5148 45.056 19.7487 44.9687C20.0383 44.8611 20.3138 44.7185 20.5688 44.5441C20.8704 44.3366 21.1297 44.0734 21.3327 43.7687C21.5813 43.3926 21.7703 42.9802 21.893 42.5463C22.0516 41.9737 22.126 41.381 22.1139 40.7869C22.1141 40.2906 22.0262 39.7983 21.8541 39.3328C21.6804 38.8634 21.4125 38.4345 21.067 38.0724H21.0654ZM20.0723 43.311C19.843 43.6149 19.5403 43.8555 19.1926 44.0104C18.845 44.1653 18.4636 44.2293 18.0844 44.1966H16.7379V37.8796H17.5299C18.0695 37.8611 18.6074 37.9477 19.1139 38.1345C19.4842 38.2783 19.8156 38.5071 20.0814 38.8024C20.3129 39.0669 20.4778 39.383 20.5622 39.7243C20.6458 40.0611 20.6886 40.4068 20.6896 40.7538C20.7466 41.6481 20.5338 42.539 20.0789 43.311H20.0723ZM24.0828 45.1897H25.4632V41.4332H28.9481V40.5055H25.4615V37.8804H29.2965V36.8509H24.0828V45.1897ZM26.4248 19.5022C25.4916 19.5198 24.5617 19.619 23.6458 19.7985C21.9504 17.9243 20.5324 15.8168 19.435 13.5403C20.5415 8.8818 19.9879 8.22221 19.7437 7.91269C19.4839 7.58166 19.1172 7.04456 18.7001 7.04456C18.4157 7.06251 18.1338 7.11022 17.8593 7.1869C17.6376 7.27354 17.4381 7.40888 17.2757 7.58291C17.1133 7.75695 16.992 7.96524 16.9208 8.19242C16.3357 9.56042 17.1385 11.8926 17.9644 13.6901C17.1736 16.7391 16.1248 19.7153 14.8295 22.5866C11.693 24.0233 10.0295 25.4343 9.87641 26.7808C9.84405 27.1452 9.91293 27.5114 10.0755 27.8391C10.238 28.1668 10.4879 28.4432 10.7975 28.6379C11.0278 28.8125 11.3088 28.9073 11.5978 28.9077C12.3219 28.9077 13.0535 28.3532 13.9001 27.164C14.6572 26.05 15.317 24.873 15.8723 23.6459C18.2264 22.6332 20.6731 21.8511 23.1782 21.3105C24.4858 22.5659 25.6568 23.2015 26.6632 23.2015C27.0271 23.2022 27.3855 23.1125 27.7061 22.9405C28.0268 22.7684 28.2997 22.5195 28.5004 22.2159C28.7206 21.9806 28.8682 21.6868 28.9255 21.3697C28.9827 21.0526 28.9472 20.7257 28.8232 20.4283C28.5045 19.8084 27.7192 19.5055 26.4232 19.5055L26.4248 19.5022ZM11.616 27.5075C11.2287 27.2103 11.251 27.0109 11.2593 26.9348C11.3106 26.4746 12.0314 25.6578 13.8 24.6639C12.4593 27.14 11.7393 27.4686 11.616 27.5075ZM18.4022 8.53752C18.4378 8.52593 19.267 9.44787 18.485 11.199C18.144 10.8444 17.9468 10.3759 17.9315 9.8842C17.9162 9.39251 18.084 8.91264 18.4022 8.53752V8.53752ZM16.6916 21.8004C17.5461 19.757 18.285 17.6671 18.9045 15.5406C19.8055 17.1702 20.865 18.707 22.0676 20.1287C20.2385 20.5626 18.4412 21.1212 16.6883 21.8004H16.6916ZM27.3674 21.404C27.2379 21.535 27.0809 21.6357 26.9077 21.6988C26.7346 21.7619 26.5496 21.7859 26.3661 21.769C25.925 21.769 25.7603 21.5066 25.0858 20.9877C25.583 20.9269 26.0836 20.897 26.5845 20.8984C27.3203 20.8984 27.4552 21.0068 27.557 21.0639C27.5117 21.1862 27.4481 21.3009 27.3683 21.404H27.3674Z" fill="#00ADEF"/>
</g>
<defs>
<clipPath id="clip0">
<rect width="37.2414" height="48" fill="white" transform="translate(0 0.5)"/>
</clipPath>
</defs>
</svg>
