<svg width="22" height="22" viewBox="0 0 22 22" fill="none" xmlns="http://www.w3.org/2000/svg">
<path fill-rule="evenodd" clip-rule="evenodd" d="M3.45918e-06 9.15494C-0.00152999 10.9185 0.506798 12.645 1.46377 14.1263C2.42075 15.6077 3.78556 16.7808 5.39385 17.5044C7.00214 18.2281 8.78534 18.4713 10.5287 18.2049C12.272 17.9385 13.9012 17.1738 15.22 16.0029L21.054 21.8379C21.1579 21.9398 21.2977 21.9967 21.4432 21.9962C21.5887 21.9957 21.7282 21.9378 21.8313 21.8352C21.9344 21.7326 21.993 21.5935 21.9943 21.448C21.9955 21.3025 21.9394 21.1623 21.838 21.0579L16 15.2239C16.9831 14.1151 17.6823 12.7841 18.0374 11.3453C18.3925 9.90655 18.3929 8.40308 18.0385 6.96413C17.6842 5.52518 16.9858 4.1938 16.0032 3.08442C15.0207 1.97504 13.7834 1.12085 12.3978 0.595277C11.0122 0.069701 9.51971 -0.111541 8.04859 0.0671289C6.57746 0.245799 5.17173 0.779037 3.95222 1.62101C2.73271 2.46298 1.7359 3.5885 1.04747 4.90082C0.359042 6.21314 -0.000413124 7.67301 3.45918e-06 9.15494V9.15494ZM17.2 9.15494C17.1996 10.7471 16.7271 12.3034 15.8422 13.627C14.9572 14.9507 13.6997 15.9821 12.2285 16.591C10.7574 17.1999 9.13869 17.3589 7.5772 17.0478C6.0157 16.7367 4.58152 15.9696 3.45603 14.8434C2.33053 13.7172 1.56428 12.2825 1.25417 10.7208C0.94406 9.15915 1.10402 7.54057 1.71383 6.0698C2.32363 4.59902 3.35589 3.34211 4.68005 2.45801C6.00422 1.57392 7.56082 1.10235 9.153 1.10294C11.2868 1.10691 13.3321 1.95668 14.8405 3.466C16.3489 4.97533 17.1974 7.0211 17.2 9.15494V9.15494Z" fill="#888888"/>
</svg>
