<svg width="24" height="24" viewBox="0 0 24 24" fill="none" xmlns="http://www.w3.org/2000/svg">
<path d="M12 1.5V12" stroke="#00ADEF" stroke-width="1.5" stroke-linecap="round" stroke-linejoin="round"/>
<path d="M12 5.3399L14.19 3.1499" stroke="#00ADEF" stroke-width="1.5" stroke-linecap="round" stroke-linejoin="round"/>
<path d="M11.9986 5.3399L9.80859 3.1499" stroke="#00ADEF" stroke-width="1.5" stroke-linecap="round" stroke-linejoin="round"/>
<path d="M2.91016 6.75L12.0002 12" stroke="#00ADEF" stroke-width="1.5" stroke-linecap="round" stroke-linejoin="round"/>
<path d="M6.22969 8.67018L5.42969 5.68018" stroke="#00ADEF" stroke-width="1.5" stroke-linecap="round" stroke-linejoin="round"/>
<path d="M6.22828 8.66992L3.23828 9.46992" stroke="#00ADEF" stroke-width="1.5" stroke-linecap="round" stroke-linejoin="round"/>
<path d="M2.91016 17.25L12.0002 12" stroke="#00ADEF" stroke-width="1.5" stroke-linecap="round" stroke-linejoin="round"/>
<path d="M6.22828 15.3298L3.23828 14.5298" stroke="#00ADEF" stroke-width="1.5" stroke-linecap="round" stroke-linejoin="round"/>
<path d="M6.22969 15.3301L5.42969 18.3201" stroke="#00ADEF" stroke-width="1.5" stroke-linecap="round" stroke-linejoin="round"/>
<path d="M12 22.5V12" stroke="#00ADEF" stroke-width="1.5" stroke-linecap="round" stroke-linejoin="round"/>
<path d="M11.9986 18.6602L9.80859 20.8502" stroke="#00ADEF" stroke-width="1.5" stroke-linecap="round" stroke-linejoin="round"/>
<path d="M12 18.6602L14.19 20.8502" stroke="#00ADEF" stroke-width="1.5" stroke-linecap="round" stroke-linejoin="round"/>
<path d="M21.09 17.25L12 12" stroke="#00ADEF" stroke-width="1.5" stroke-linecap="round" stroke-linejoin="round"/>
<path d="M17.7695 15.3301L18.5695 18.3201" stroke="#00ADEF" stroke-width="1.5" stroke-linecap="round" stroke-linejoin="round"/>
<path d="M17.7695 15.3298L20.7595 14.5298" stroke="#00ADEF" stroke-width="1.5" stroke-linecap="round" stroke-linejoin="round"/>
<path d="M21.09 6.75L12 12" stroke="#00ADEF" stroke-width="1.5" stroke-linecap="round" stroke-linejoin="round"/>
<path d="M17.7695 8.66992L20.7595 9.46992" stroke="#00ADEF" stroke-width="1.5" stroke-linecap="round" stroke-linejoin="round"/>
<path d="M17.7695 8.67018L18.5695 5.68018" stroke="#00ADEF" stroke-width="1.5" stroke-linecap="round" stroke-linejoin="round"/>
</svg>
